<svg width="366" height="59" viewBox="0 0 366 59" fill="none" xmlns="http://www.w3.org/2000/svg">
<path d="M201.583 19.3317H187.415V0H180.562V25.3729H201.583V19.3317Z" fill="black"/>
<path d="M217.001 20.4544H226.987L228.837 25.3622H236.129L226.025 0H218.369L208.265 25.3622H215.151L217.001 20.4544ZM221.919 7.45255H222.08L225.063 15.3435H218.947L221.93 7.45255H221.919Z" fill="black"/>
<path d="M250.307 8.82117L261.663 25.3729H267.939V0H261.663V14.8196L251.751 0H244.02V25.3729H250.307V8.82117Z" fill="black"/>
<path d="M289.313 0H278.161V25.3622H289.313C297.728 25.3622 302.924 20.6148 302.924 12.6811C302.924 4.74739 297.728 0 289.313 0ZM288.832 19.9733H285.004V5.39963H288.832C293.258 5.39963 295.878 8.06202 295.878 12.649C295.878 17.236 293.258 19.9733 288.832 19.9733Z" fill="black"/>
<path d="M197.038 46.2549C200.823 46.0945 203.967 43.5925 203.967 40.2565C203.967 35.5839 200.705 32.6436 194.183 32.6436H180.572V58.0058H187.297V48.7034H192.045C194.344 48.7034 195.552 50.2324 195.787 53.1301C195.99 55.4289 196.268 57.0755 196.717 58.0058H204.565V57.7278C203.721 56.7975 202.951 55.5572 202.234 51.8042C201.668 48.821 199.658 46.8537 197.038 46.2442V46.2549ZM192.964 43.5177H187.287V38.118H192.964C195.819 38.118 197.273 39.0055 197.273 40.8125C197.273 42.6195 195.819 43.507 192.964 43.507V43.5177Z" fill="black"/>
<path d="M225.619 32.1626C218.252 32.1626 212.253 37.5195 212.253 45.3249C212.253 53.1303 218.252 58.4871 225.619 58.4871C232.986 58.4871 238.984 53.1303 238.984 45.3249C238.984 37.5195 232.986 32.1626 225.619 32.1626ZM225.619 52.4566C221.877 52.4566 219.3 49.6339 219.3 45.3249C219.3 41.0158 221.877 38.1931 225.619 38.1931C229.361 38.1931 231.938 41.0158 231.938 45.3249C231.938 49.6339 229.361 52.4566 225.619 52.4566Z" fill="black"/>
<path d="M258.84 49.6337H258.68L252.521 32.6436H244.983L254.969 58.0058H262.187L272.163 32.6436H264.999L258.84 49.6337Z" fill="black"/>
<path d="M286.822 47.987H297.771V42.2667H286.822V38.4388H301.524V32.6436H280.096V58.0058H301.876V52.2105H286.822V47.987Z" fill="black"/>
<path d="M327.527 46.2549C331.312 46.0945 334.456 43.5925 334.456 40.2565C334.456 35.5839 331.195 32.6436 324.672 32.6436H311.061V58.0058H317.787V48.7034H322.534C324.833 48.7034 326.041 50.2324 326.276 53.1301C326.479 55.4289 326.757 57.0755 327.206 58.0058H335.055V57.7278C334.21 56.7975 333.44 55.5572 332.724 51.8042C332.157 48.821 330.147 46.8537 327.527 46.2442V46.2549ZM323.464 43.5177H317.787V38.118H323.464C326.319 38.118 327.773 39.0055 327.773 40.8125C327.773 42.6195 326.319 43.507 323.464 43.507V43.5177Z" fill="black"/>
<path d="M357.69 42.748L352.013 41.5825C350.922 41.3366 349.917 40.9837 349.917 39.8076C349.917 38.5138 351.606 37.6691 353.702 37.6691C357.124 37.6691 358.974 39.1553 360.428 41.0906L364.94 36.8244C362.277 34.0016 358.621 32.1519 353.702 32.1519C347.255 32.1519 343.074 35.4558 343.074 40.4063C343.074 44.833 346.218 46.8859 350.323 47.7306L356.204 48.896C357.412 49.142 358.738 49.3772 358.738 50.7886C358.738 52.2 356.963 52.9591 354.269 52.9591C351.05 52.9591 348.067 51.7081 346.014 49.2168L341.823 54.0497C344.806 56.8725 348.752 58.4764 354.269 58.4764C360.513 58.4764 365.667 55.6536 365.667 50.3823C365.667 46.2336 363.208 43.9027 357.69 42.7266V42.748Z" fill="black"/>
<path d="M41.3686 21.4595H15.4183V0.320801H0V57.4713H15.4183V34.8784H41.3686V57.4713H56.787V0.320801H41.3686V21.4595Z" fill="black"/>
<path d="M106.496 2.18127L105.127 0.320801H59.7168V13.9321H81.1335V57.4713H96.4557V13.9321H115.402L106.496 2.18127Z" fill="black"/>
<path d="M168.832 0.320801H151.318L139.16 16.648L127.281 0.320801H108.955L118.139 12.4352L130.008 28.0781L107.329 57.4713H124.833L138.626 39.0591L152.141 57.4713H170.457L147.693 27.629L168.832 0.320801Z" fill="black"/>
</svg>
