<svg width="209" height="96" viewBox="0 0 209 96" fill="none" xmlns="http://www.w3.org/2000/svg">
<path d="M208.158 36.0224L207.506 28.9975L206.512 25.9288C205.988 25.2125 205.485 24.7848 204.673 24.4426L200.385 24.3036C199.262 24.464 198.385 24.6885 197.295 25.1055L197.167 20.5934L197.038 14.5843L196.91 11.0986L197.37 10.6923L197.744 10.0614V9.07774C197.648 8.79974 197.391 8.37204 197.167 8.09404L196.824 7.6022L196.696 2.94034L196.279 0.898106C195.723 0.363489 195.146 0.0534118 194.408 -0.0107422L189.383 0.0961811L183.363 0.171027L170.35 0.363489L157.509 0.513182L130.094 0.898106L115.06 0.972952L108.442 1.0478L107.233 1.19749L96.4341 2.9938L90.1577 4.06303L86.1695 4.74734L78.3962 6.01973L75.5306 6.49019L73.3708 6.91789C72.5581 7.14243 71.8097 7.5915 71.2002 8.1582L70.3234 9.33435L69.6391 9.71928C68.9228 10.0294 68.4523 10.9703 69.0404 11.8257L68.6341 12.7987L64.6244 21.2456L61.7803 27.3295C60.9249 27.2119 60.2406 27.5648 59.8984 28.2491L58.316 31.8417L58.2839 32.9751L58.6795 34.0122L57.2574 35.723L55.985 35.9689L50.9596 36.2362L37.9257 37.2092L27.9177 38.0005L23.32 38.3854L11.6653 39.7219L8.62871 40.3635C7.06763 40.973 5.68832 42.0636 5.46378 43.8599L5.18578 44.448C3.35739 44.6297 2.21331 45.6348 1.28308 46.9927L0.801925 48.5859L0.673617 53.8572L0.834002 60.8714C1.02646 62.4859 1.88185 63.8438 3.52847 64.2288L3.93478 64.464V66.0572L1.01577 66.1641C0.513232 66.4528 0.18177 66.8698 0 67.4685V71.5102C0.106923 72.3335 0.684309 72.804 1.49693 72.9965L6.47955 73.0499L7.63432 72.4832C7.95509 72.387 8.60732 72.665 8.96017 73.0179L9.94386 73.3172L11.0024 73.2531L10.8313 74.3651C10.6282 76.1293 10.564 77.8936 10.6816 79.7219C11.0666 83.1649 12.3176 86.2336 14.4346 88.896C15.4932 90.2325 16.7121 91.3338 18.0486 92.4351L21.545 94.5308L13.7183 94.6698L7.91232 94.8409L4.90778 94.8944L3.67816 95.0654L4.91847 95.2151L11.9433 95.3969L30.3662 95.6107L50.2432 95.6321L61.0211 95.6963L73.6381 95.7284H85.0789H110.912L151.136 95.6535L164.138 95.6214L167.624 95.5894L189.81 95.2793L193.275 95.0761C192.665 94.9585 192.098 94.9051 191.425 94.873L182.454 94.6698L163.721 94.4667L167.848 91.8257L170.778 88.7035C172.061 86.811 173.045 84.8543 173.708 82.6837C174.274 80.3742 174.52 78.1502 174.189 75.6589L174.531 75.3167L180.636 75.2312L182.165 74.6217L183.544 73.9481L183.887 73.916L183.962 74.2582L183.94 74.5148L183.887 74.9318L184.133 81.9353L184.186 85.6348L185.148 86.843C185.555 87.26 186.132 87.4632 186.592 87.2066L186.838 86.9179L186.881 84.1379L186.688 76.5249L186.635 76.1293V73.8091L193.05 75.4343C193.895 75.8727 194.6 76.3753 194.782 77.3269C194.846 77.9256 195.253 78.4603 195.809 78.6099L200.855 78.4816C201.925 78.1716 202.47 77.2093 202.277 76.1079L202.171 75.4557L202.363 74.9639C202.62 74.4506 202.684 73.9695 202.598 73.2852L201.23 72.3656L199.594 73.1996C199.444 74.055 199.476 74.5896 200.053 75.1563L200.203 75.8406L198.674 76.0438L198.268 76.001L197.712 75.9583L197.551 75.5199V73.499L197.509 71.2857L197.616 70.0989L197.562 66.6452C197.594 66.4742 197.69 66.1962 197.776 66.0251L198.118 65.3087L198.065 61.8551L198.257 61.545H198.663L201.882 61.7695L205.571 61.1601L206.298 60.8393L207.431 58.5511L208.158 52.4458L208.361 40.2352L208.233 36.0117L208.158 36.0224ZM103.555 37.4338L104.796 37.2734L105.074 37.8187L105.33 38.2892L105.875 38.086L105.961 39.5402L105.17 39.7219L104.988 40.4704L103.651 40.5346L103.512 39.8075L102.924 39.337L103.17 38.3747C103.619 38.1716 103.587 37.8508 103.545 37.4338H103.555ZM106.56 37.7973C106.56 37.3055 106.175 36.8457 105.704 36.7281L104.635 36.7602L104.154 36.6426L104.058 36.2256L103.929 23.2023L103.855 11.9754L115.659 11.815L131.462 11.6225L136.99 11.5263L137.268 11.9754L137.461 26.6132L137.589 40.7698L112.066 41.0692L105.886 41.1868C106.239 40.973 106.538 40.5346 106.57 40.1069L106.538 37.808L106.56 37.7973ZM103.128 40.3314L102.743 40.4597L102.572 39.9572L102.956 39.8289L103.128 40.3314ZM102.678 36.7602C102.208 36.7602 101.791 37.0382 101.481 37.4231L101.417 32.4084L101.288 14.1994L101.331 12.0502L102.465 11.9433L103.234 12.1464L103.277 20.7965L103.438 36.5036L102.678 36.7495V36.7602ZM103.427 41.8283L103.566 42.7051L103.662 52.4672L103.737 60.3261C103.758 60.5292 103.502 60.6682 103.117 60.6255C102.636 60.7858 102.454 60.8607 101.941 61.1494C102.08 61.2135 101.844 61.1066 101.738 61.0531L101.652 52.8628L101.502 41.946L103.427 41.8283ZM102.507 61.8337L102.443 61.5878L102.903 61.3204C102.978 61.267 103.331 61.5557 103.213 61.5878L102.507 61.8337ZM102.817 64.1646C103.352 64.4212 103.48 64.6137 102.871 64.742L102.261 64.2181L102.817 64.1646ZM101.812 64.9345L102.764 65.4263L103.726 65.3622L103.823 66.9553L103.545 67.4044L101.823 67.3188V64.9345H101.812ZM103.662 63.8331L103.053 63.7583V62.2935L103.662 62.1545L103.79 61.3525H105.469H106.121L106.218 61.9192L106.26 64.0042L105.64 63.7904C105.491 64.0256 105.437 64.1646 105.341 64.6351H103.897L103.673 63.8545L103.662 63.8331ZM105.929 65.3515C106.25 65.2552 106.635 64.8917 106.838 64.5388L106.784 61.6519C106.859 61.1387 106.389 60.6789 105.875 60.711L104.389 60.6575L104.261 49.8583L104.229 42.2026C104.325 42.085 104.475 41.9353 104.657 41.7963L132.457 41.4648L137.749 41.422L137.91 48.6607C137.888 49.1419 137.728 49.6337 137.439 49.9759L134.007 53.7717L131.345 56.7441L124.095 64.6565L122.053 66.966L121.069 67.0729L113.863 67.1478L107.661 67.2654L104.528 67.3082V65.3728L105.94 65.3515H105.929ZM137.878 11.5049L196.172 10.7244L196.493 35.0922L138.198 35.8727L137.878 11.5049ZM171.056 36.0331V36.2362H167.346V36.0331H171.056ZM138.348 36.5677L138.851 36.5249L138.829 36.9954L147.907 36.8992L154.13 36.8457L168.329 36.6746H170.575L194.761 36.3325L196.578 36.2683L196.514 37.2627L180.978 37.4124L173.75 37.4552L162.523 37.5728L143.716 37.7973L138.305 37.8508L138.188 37.0168L138.337 36.557L138.348 36.5677ZM196.578 38.0112L196.6 40.2031L138.359 40.8874L138.337 38.6955L196.578 38.0112ZM194.975 35.7337C195.477 35.6268 196.001 35.6268 196.621 35.7337C196.119 35.8406 195.595 35.8406 194.975 35.7337ZM127.677 1.98872L144.314 1.78557L161.337 1.58241L173.718 1.43272L188.773 1.24026L194.429 1.16541C194.953 1.3258 195.338 1.77488 195.477 2.2988L195.605 3.34665L195.734 6.51158C195.766 7.15312 195.766 7.78397 195.712 8.51104L149.35 9.09912L134.317 9.20604L131.387 9.36643L121.08 9.43058L109.383 9.64443L109.457 6.37258C109.425 4.99327 109.329 3.74226 109.072 2.24534L127.677 1.99942V1.98872ZM71.6707 9.47335C72.2801 8.68212 73.0072 8.17958 74.0016 7.91227L77.9685 7.21727L78.8238 7.07827L89.2489 5.38888L97.1933 4.03096L107.447 2.2988L108.709 2.27742L108.944 4.55488L109.083 6.76819L108.88 9.62305L89.2703 9.87966L71.66 10.0614C71.4675 9.91174 71.5317 9.69789 71.66 9.47335H71.6707ZM196.578 9.09912V9.78343L69.9706 11.3552V10.6709L196.578 9.09912ZM60.1123 61.2349L59.1713 61.6733L59.15 65.3835C59.3531 65.6081 59.7808 65.8647 60.123 65.9716L60.8821 66.132L60.85 67.9925L58.9789 68.0459L58.9468 62.4859L58.8613 54.2207L58.7971 50.8527V46.8537L58.8827 42.4057L60.6148 42.4271L60.7538 58.0593L60.8073 61.128L60.0909 61.2242L60.1123 61.2349ZM60.4437 62.0261L59.8343 62.6142L59.6739 64.5388L59.5456 62.6998L59.7594 61.9727L60.4437 62.0261ZM60.4544 64.1967L60.4758 63.0419C60.7966 62.6677 60.8393 62.5715 60.989 61.9085L62.5287 61.8765L62.3683 62.4004L62.7212 62.6998L63.2986 62.2507C63.2986 62.2507 63.2986 62.1651 63.2986 62.1545C63.2986 62.2186 63.2986 62.3683 63.3093 62.4966L63.213 64.2822C63.213 64.2822 63.213 64.325 62.5822 64.3678L62.4539 65.2552H60.989C60.8393 64.5923 60.7966 64.4854 60.4437 64.1967H60.4544ZM63.7584 38.9628L64.3144 38.3854L66.6774 37.5942L67.1906 36.8029C67.1906 36.6639 67.3937 36.4715 67.6076 36.3966L91.8043 36.0759L95.8246 36.001C97.0115 35.7979 97.7279 34.9852 98.0487 33.7663L97.931 17.5995L97.899 15.4611C97.2574 14.2421 96.4555 13.6647 95.2259 13.7289L89.8263 13.8037L81.4221 13.9214L74.1941 13.9855C73.3708 14.178 72.7185 14.7233 72.2374 15.429L67.9711 24.5388L67.4472 25.4049L65.7685 25.6402L65.0735 27.5968L64.8169 31.2429L64.2609 32.6222L64.0684 33.777C64.0898 34.5682 64.3464 35.2953 64.9559 35.8727L65.0628 36.2042L62.3683 36.5249L61.3526 36.8136L61.2991 34.4079L63.3734 29.6391L65.3301 25.6081L68.0139 19.8342L71.5103 12.371L85.8273 12.2213L99.6418 12.0181L100.7 12.1144L100.754 21.8551L100.775 27.8214L100.818 35.8299L100.839 41.2189L97.8348 41.283L87.0249 41.422L76.2577 41.5717L69.4039 41.6893L63.4804 41.7642L63.8011 41.0371L63.769 38.9735L63.7584 38.9628ZM66.6453 28.6126L65.8434 34.9532C65.6402 34.5682 65.5867 34.1085 65.5012 33.6273C65.5654 31.275 65.7257 29.1365 66.0465 26.7522C66.4101 26.41 66.8271 26.4955 67.1585 26.8056L66.6346 28.6019L66.6453 28.6126ZM68.0246 33.3386L67.9711 29.468L67.7466 29.2328L67.8642 26.7735L68.0032 27.8428L68.1636 28.2812V30.0454L68.3667 30.4731L68.3988 35.2526L67.9818 35.6696L68.0567 34.6645C68.2171 34.2902 68.2171 33.7236 68.0139 33.3279L68.0246 33.3386ZM76.3111 31.414L75.135 32.6329L74.3438 33.4669C73.9695 33.7877 73.7664 34.0978 73.6488 34.611L72.8254 34.8035L72.2695 34.5255L72.6758 33.9267L73.5205 34.0443L73.8198 33.5418L73.3708 33.3386L72.4619 33.6808L72.1839 33.2531L72.1625 29.7995C72.1625 29.0831 71.7134 28.3988 71.0078 28.3132L68.7303 28.2705L68.463 26.0037L71.5744 19.3745L73.3815 15.6001C73.8305 15.2365 74.2368 14.9799 74.7928 14.8302L95.6108 14.6377C96.4234 14.7767 97.0115 15.3648 97.0543 16.1881L97.1826 31.4033V33.916L96.4555 34.4827L85.4103 34.611L80.556 34.6966L76.1401 27.4792L75.0495 25.715L73.9268 26.0572L73.8733 27.1692L76.3005 31.414H76.3111ZM62.9137 37.1023L64.6137 36.8778L65.7578 36.8029C66.1107 36.5998 66.2604 36.5677 65.9503 36.9526L65.0414 37.113L62.6891 37.808L61.8017 38.0112L61.1173 37.6476L62.903 37.1023H62.9137ZM63.0847 40.2566C62.9885 39.8289 62.9885 39.3584 63.0847 38.8131C63.181 39.2408 63.181 39.7113 63.0847 40.2566ZM61.5878 65.9823L63.0313 65.9288C63.6194 65.854 64.1005 65.298 63.9508 64.7206L64.0043 61.823C63.6728 61.5557 63.1917 61.2884 62.8495 61.2135L61.5023 61.1708L61.3633 54.2742L61.3312 44.0737L61.4167 42.5661L62.0369 42.4057L100.016 41.9032L100.85 42.0315L101.032 52.6917L101.149 67.3188L93.0446 67.4258L84.6405 67.5434L78.2144 67.6503L61.8017 67.8855L61.513 67.1478L61.6092 65.9823H61.5878ZM70.1951 12.1037L70.8581 12.4244L62.3577 30.3234L61.6947 30.0026L70.1951 12.1037ZM60.5079 29.3718C60.679 28.8799 60.8073 28.5805 61.5664 28.495L61.235 29.2649L59.9519 31.8417L59.3103 33.0072L59.2462 32.387L60.4972 29.3611L60.5079 29.3718ZM58.8613 39.7113C58.9254 39.198 58.9468 38.6099 58.9468 38.0433C58.6688 36.418 59.043 34.889 59.9305 33.5632L61.2029 30.8366L61.684 30.6228L61.9941 31.0077L60.6255 34.194L60.6469 37.1237L59.9091 37.252L59.1393 37.6369L59.182 41.422L60.3582 41.7963L59.0217 41.8497L58.7436 41.3472L58.8399 39.7006L58.8613 39.7113ZM62.7319 68.5912L73.2104 68.4415L91.6119 68.1529L99.4387 68.0459L108.046 67.9497L114.461 67.8748L124.459 67.7679L126.073 67.7465H131.077L134.584 67.7145L133.964 70.0347C133.718 70.1844 133.28 70.3876 132.906 70.5052L123.678 70.6762L110.462 70.8687L96.2416 71.0505L80.6309 71.275L75.0815 71.3605L53.9963 71.7134C53.1836 71.6492 52.4673 71.4461 51.8043 71.1253L51.3339 69.329L51.1628 68.9655L51.5691 68.7409L62.7426 68.6019L62.7319 68.5912ZM137.418 74.9959L137.439 76.3859L134.403 76.0117L137.418 74.9959ZM121.668 74.5041V75.0066L68.9869 75.8299V75.3274L121.668 74.5041ZM74.0444 73.5418L74.9639 73.4669L75.0388 74.4613L74.1192 74.5362L74.0444 73.5418ZM114.707 73.4135C114.707 73.1141 114.953 72.8682 115.242 72.8682C115.531 72.8682 115.777 73.1141 115.777 73.4135C115.777 73.7129 115.531 73.9588 115.242 73.9588C114.953 73.9588 114.707 73.7129 114.707 73.4135ZM69.9813 76.4394L72.6009 76.4822C73.4777 76.5143 74.3224 76.5036 75.2098 76.4394L83.2077 76.2576H85.8273L87.0356 76.2149L96.8297 76.0438H97.8455L102.454 75.9155L108.655 75.8834C109.607 75.9155 110.527 75.9155 111.478 75.8406L121.497 75.6268L123.005 74.9532L124.298 75.0708L128.5 74.5041L129.388 74.5362L129.933 75.2098C127.944 75.7979 126.127 76.0545 124.084 76.1614L120.674 76.2576L111.468 76.3432C110.505 76.3111 109.607 76.3111 108.634 76.3966L97.8455 76.5784L96.819 76.6105L87.0249 76.8029C86.6079 76.7709 86.2122 76.7816 85.8059 76.8136L77.6049 76.974L75.1885 76.9526L72.5902 76.974L69.1794 77.1237L63.3841 76.974L61.1494 76.5891L59.5028 76.0224C60.2833 75.5626 60.6041 75.4557 61.128 75.3595L63.1703 75.6268L67.7145 75.7444C68.3881 76.1828 69.158 76.418 69.9706 76.418L69.9813 76.4394ZM9.44133 41.2723L12.9056 40.6308L26.1214 39.2622L41.9139 38.0219L56.7656 37.0061C57.3323 37.0489 57.7279 37.3696 57.931 37.8401V39.6364L57.8348 41.4113L51.9326 41.4755L31.7348 41.7642L24.3037 41.8283L14.3919 41.8818C12.3496 41.8818 10.5533 42.224 8.74632 42.8441L7.46325 43.753L6.61855 43.646C7.08901 42.2774 8.20102 41.6893 9.43063 41.283L9.44133 41.2723ZM5.4424 64.3143L5.59209 66.1106L4.65116 66.1855L4.50147 64.3892L5.4424 64.3143ZM3.47501 48.6073L4.25555 47.6129L4.61909 47.9978L4.13793 48.6821L3.4857 48.6073H3.47501ZM4.29832 51.3659L3.89201 51.4621L3.85993 49.6017L4.26624 49.2274L4.29832 51.3766V51.3659ZM3.56055 54.8837L3.60331 52.6597L3.66747 52.1357L4.25555 52.0716L4.29832 55.3327C4.23416 55.6321 4.02032 55.9422 3.7637 56.1133L3.56055 54.8944V54.8837ZM4.28762 56.68V58.5832H4.08447V56.68H4.28762ZM3.84924 59.7594L4.30901 59.738L4.65116 62.1545L4.00962 61.3846L3.84924 59.7594ZM5.35686 67.5968L4.90778 67.6931L1.91393 67.7786L1.41139 68.3881L1.36862 69.3825L1.14408 71.553L1.03716 67.9069L1.41139 67.1905L2.87624 67.2654L6.31917 67.3616L5.34616 67.5968H5.35686ZM7.37771 65.9609L7.00348 66.4421L6.59717 66.0037L6.44747 65.1055C6.1374 61.823 5.96632 58.6474 5.83801 55.3221C5.82732 52.9804 5.88078 50.7671 6.03047 48.479C6.25501 46.7254 7.12109 45.3033 8.6394 44.3945C10.1898 43.5926 11.9113 43.1863 13.6969 43.1756L17.1077 43.1007L20.3154 43.0259L25.9824 42.9296L49.7407 42.4913L58.3373 42.3416L58.4015 55.6856L58.4763 68.0459L51.0345 68.1956L49.3986 62.8281C48.6501 60.3474 47.7306 58.0058 46.533 55.6856L45.6776 54.317C44.8009 53.1301 43.6461 52.2213 42.363 51.4087C41.2189 50.981 40.139 50.6388 38.9628 50.3608L34.1406 49.8797L23.5338 50.008L18.487 50.596C17.1077 51.0024 15.8674 51.43 14.6699 52.0288L12.9698 53.483C12.1679 54.5415 11.4836 55.5787 10.8527 56.6586L8.44694 62.4966L7.39909 65.9823L7.37771 65.9609ZM10.842 65.0948L9.4734 66.0785L8.12617 66.41L8.61802 64.4854L9.21679 62.657C9.99733 60.4651 10.8313 58.4335 11.8257 56.4234L12.8308 54.873C13.7076 53.7824 14.702 52.9484 15.8888 52.1892L19.6953 51.1307L24.7207 50.6709L33.5204 50.6067L37.1131 50.874C38.7597 51.0772 40.2994 51.4194 41.7963 51.954C43.5926 52.9163 44.8971 54.3384 45.9236 56.1347C46.8645 58.07 47.645 60.016 48.4042 62.0796L49.8369 66.8912L50.8099 70.7404L47.9979 69.2435L47.3777 67.6931L44.9612 61.2456L43.3467 58.4977C42.3951 57.3643 41.3365 56.5624 40.0107 55.9422L36.942 55.1724L32.3229 54.8516L23.1168 55.1617L19.877 55.6214C18.5833 55.9208 17.3964 56.3057 16.2523 56.819C15.0655 57.5674 14.1566 58.4656 13.3013 59.6524L11.7936 62.6356L10.842 65.1055V65.0948ZM45.6349 74.4079C45.6669 74.472 45.7418 74.5896 45.7632 74.6324L44.8971 74.9211L44.5442 75.0601L44.3945 74.7073L45.6242 74.3972L45.6349 74.4079ZM45.4638 76.8243L45.8701 76.7067L46.0091 77.2413L45.5172 77.2627L44.5549 77.1665L45.4531 76.8136L45.4638 76.8243ZM12.2855 76.696L11.7936 76.5463V76.0117L13.4616 76.2683C13.4616 76.3111 13.4296 76.6639 13.4189 76.8564L12.2855 76.696ZM15.3863 72.2587L14.4881 75.306L14.2101 78.5565L14.0604 76.9313L13.8786 75.9903L13.6006 76.0759L13.622 75.7765L13.5793 75.0173L12.0609 74.6966L12.1893 73.5952L13.6327 74.0978L13.9749 73.4349L14.1032 73.0072L13.7717 72.6971L12.51 72.2266L13.0019 71.2643L14.3812 71.8524L14.9158 70.7939L13.4403 69.9706L14.0176 68.9227L15.4076 69.6498L16.0385 68.5805L14.8089 67.6824L15.4076 66.9018L16.7442 67.8107L17.4392 66.9125L16.2844 65.8968L17.065 65.159L18.1342 66.0144L18.8933 65.4691L18.1021 64.2181L19.1286 63.4161L20.1443 64.5816L21.1387 63.9722L20.4117 62.6035L21.1922 62.0796L21.7268 63.0633L21.8765 63.4268L22.4539 63.3948L23.0954 62.8174L22.5287 61.5022L23.6835 61.0959L24.2288 62.5501L25.3622 62.24L24.9773 60.6789L25.961 60.4223L26.3459 61.9941L27.5007 61.9085L27.3831 60.3581L28.463 60.2512L28.602 61.8444L29.7781 61.8658L29.8316 60.294L30.8581 60.3154L30.7511 61.9299L31.9273 62.1224L32.2267 60.7751L32.772 60.4758L33.4456 60.9355L33.0393 62.3469L34.162 62.7853L34.7608 61.2135L35.8621 61.6519L35.2419 63.2344L36.5036 63.7583L37.1345 62.4218L38.0968 62.9136L37.4125 64.4319L38.4603 64.7634L39.1874 63.6941L40.1497 64.4212L39.5402 65.7471L39.8396 66.3565L40.4918 66.3031L41.2296 65.4798L41.8712 66.3245L40.7912 67.3402L41.5076 68.3025L42.8442 67.3509L43.5392 68.3025L42.3202 69.0831L42.363 69.8743L42.6196 70.1523L42.9725 70.1095L44.1059 69.5215L44.6084 70.441L43.2184 71.2216L43.5712 72.3656L45.004 71.8417L45.5279 72.6757L43.7851 73.082L43.9882 74.8035L43.8385 75.6909L43.7316 77.5514L43.5285 76.3218L43.2612 74.8676C42.9511 73.4456 42.4806 72.1839 41.8712 70.8901C41.1975 69.6177 40.3956 68.5271 39.4547 67.4365L37.6477 65.8754C35.7872 64.5602 33.8305 63.7155 31.6386 63.1916C29.9706 62.9778 28.3133 63.0098 26.5704 63.1916C24.5389 63.6514 22.6677 64.3464 20.9677 65.4798C18.4122 67.1692 16.6052 69.4466 15.4504 72.248L15.3863 72.2587ZM39.0163 77.8508C39.0163 83.4643 34.4721 88.0085 28.8693 88.0085C23.2665 88.0085 18.7223 83.4643 18.7223 77.8508C18.7223 72.2373 23.2665 67.6931 28.8693 67.6931C34.4721 67.6931 39.0163 72.2373 39.0163 77.8508ZM17.8883 83.0687L17.621 82.6196L17.343 81.807L17.6103 81.7321L17.7065 82.1491L18.1342 83.0687H17.8883ZM24.0364 89.2595L21.4595 87.6557L20.1978 86.2977C19.4493 85.3675 18.6581 84.6511 18.2732 83.5391L21.1173 86.2229C22.5715 87.2493 23.9936 88.1261 25.6937 88.757L29.3184 89.1954C30.7832 88.928 32.0663 88.6821 33.4135 88.2651C35.1778 87.3456 36.7175 86.3191 38.1395 84.9505C39.1018 83.6353 39.7541 82.3095 40.4812 80.7377L40.417 81.5396C39.8717 83.5284 38.9201 85.2071 37.5301 86.5757L36.5357 87.6343C34.9639 88.7249 33.3708 89.591 31.5317 90.0187C28.9227 90.5426 26.4314 90.2432 24.0257 89.2595H24.0364ZM133.868 94.4132L88.2331 94.3918L62.379 94.4239L36.5036 94.5415C36.3432 94.5843 36.4181 94.4881 36.5678 94.3491C40.3635 92.5634 43.3574 89.6444 45.3675 85.9342C46.1802 84.2448 46.7469 82.5661 47.0569 80.727L47.3991 78.5993L49.1633 78.4282L54.4133 78.1395L54.6271 85.7203L54.6592 87.4418C54.8516 87.8054 55.119 88.0727 55.5573 88.34C56.3165 88.0299 56.68 87.645 56.7976 86.9393L56.7763 84.726L56.4876 78.0539L58.9468 77.9684L60.85 78.6527C62.0048 79.5188 63.32 80.0106 64.8062 80.1069H68.6234C69.8957 79.9679 71.0398 79.615 72.0877 78.8773L77.0275 78.7917L87.8482 78.5565L102.058 78.3533L108.089 78.2571L118.257 78.1609C119.198 78.781 120.096 79.2408 121.123 79.6257C122.598 79.8396 124.02 79.5936 125.261 78.7596L126.287 78.1181L128.714 78.0539L130.511 78.2143L134.766 78.7703L138.401 79.2943C138.69 81.6573 139.246 83.8492 140.305 85.9449L141.363 87.7519L143.566 90.4891C145.234 92.0609 146.987 93.1087 149.115 94.4025L133.9 94.3704L133.868 94.4132ZM139.909 81.3472L141.214 81.0585L141.363 81.7214L140.059 82.0101L139.909 81.3472ZM165.827 85.5386C165.036 86.5864 164.181 87.4311 163.154 88.1689C161.721 89.1205 160.246 89.7193 158.599 90.1256C157.252 90.2432 155.937 90.2539 154.59 90.1684L152.098 89.5054L148.816 87.4953C147.896 86.5223 147.041 85.5386 146.239 84.48C145.779 83.4963 145.426 82.8013 145.095 81.5717L145.491 82.1063L145.993 83.2397C146.881 84.6404 147.939 85.8166 149.276 86.811L151.435 88.0513C153.467 88.896 155.541 89.3344 157.744 89.0029C160.139 88.7356 162.235 87.7733 164.01 86.2015C165.132 85.2178 166.137 84.0951 166.886 82.7586L167.805 80.8553C167.784 80.4704 167.827 80.4918 167.998 80.9195C167.592 82.6303 166.854 84.1486 165.827 85.5493V85.5386ZM146.292 77.915C146.292 72.3549 150.794 67.8535 156.343 67.8535C161.893 67.8535 166.394 72.3549 166.394 77.915C166.394 83.475 161.893 87.9764 156.343 87.9764C150.794 87.9764 146.292 83.475 146.292 77.915ZM170.382 70.9542L170.35 71.7455L169.858 71.2964C169.987 71.8096 170.061 72.0769 170.286 72.6009V73.5311C169.313 70.719 167.677 68.1422 165.293 66.2282C163.24 64.6351 160.941 63.5872 158.332 63.1809C154.932 62.8067 151.628 63.5338 148.773 65.3515C146.485 66.8805 144.763 68.8479 143.523 71.3071L142.539 73.7236L142.069 76.4394L141.994 76.8778L141.588 76.1293L141.01 77.4873L139.546 77.252V76.3432L140.978 76.5036L141.331 75.445L140.112 75.0708L139.77 74.9425V74.4827L139.93 73.8732L141.31 74.2047L141.77 73.0606L140.123 72.5046L140.583 71.5102L142.048 72.0769L142.465 70.9222L141.117 70.2913L141.566 69.2328L141.898 69.2862L143.021 69.9385L143.673 68.912L143.202 68.4843L142.347 67.9711L142.956 67.0943L144.24 67.9711L145.02 67.1264L143.855 66.1427L144.539 65.3622L145.801 66.41L146.624 65.5653L145.608 64.4319L146.592 63.5017L147.576 64.6137C147.886 64.6671 148.324 64.3571 148.538 63.9828L147.875 62.9778L148.185 62.379L148.741 62.6463L149.361 63.7369L150.441 63.1061L149.757 61.6947L150.901 61.2135L151.5 62.6356L152.43 62.3897L152.12 60.8821L153.168 60.6041L153.617 62.1972L154.75 62.0582L154.579 60.4651L155.659 60.3581L155.819 61.9834L156.91 61.962L157.102 60.2512L158.129 60.5399L157.936 61.9834L159.177 62.2079L159.497 60.6041L160.567 60.8393L160.203 62.4325L161.294 62.8281L161.871 61.3098L162.898 61.6305L162.352 63.2344L163.539 63.8011L164.191 62.3362L165.196 62.8601L164.469 64.0898C164.566 64.3464 165.132 64.7527 165.453 64.7741L166.362 63.6835L167.324 64.4426L166.373 65.6188L167.057 66.6132L168.158 65.715L168.436 65.5653L169.067 66.2175L168.244 66.8805L167.912 66.6773L167.656 67.1264L168.597 68.2491L169.965 67.2975L170.564 68.0994L169.431 68.7837L169.174 69.2755L170.222 70.9222L170.682 69.9492L171.377 69.7567L171.772 70.4303L170.35 70.9649L170.382 70.9542ZM172.211 71.9379L172.521 72.6009L170.938 72.9216C171.312 72.3656 171.537 72.2801 172.221 71.9379H172.211ZM172.628 74.4506L171.847 74.8035L171.441 74.9318L171.334 74.611L171.751 74.4613L172.563 74.3116C173.013 74.4506 172.991 74.472 172.617 74.4613L172.628 74.4506ZM175.322 67.9497C174.862 67.5862 174.456 67.1371 174.189 66.6452L172.713 62.4645L171.013 58.8184C170.361 57.9631 169.73 57.236 168.982 56.4554L166.009 55.1082L163.315 54.6484L160.513 54.4132C155.926 54.2207 151.446 54.4667 146.955 55.151L145.277 55.6856C143.78 56.3699 142.561 57.4712 141.695 58.8612L141.053 59.8556L138.733 65.4798L138.241 67.2547L137.749 68.3774L134.959 69.7674L135.098 68.8906L137.289 61.3525L139.321 56.7976C140.166 55.4183 141.064 54.1459 142.112 52.8949C143.202 51.9754 144.325 51.3766 145.715 50.9917L151.521 50.2646H162.331L166.961 50.9917C169.345 51.708 171.184 53.1194 172.392 55.2793L174.039 58.4549L175.718 62.8281C176.402 64.8382 177.011 66.7308 177.461 68.912L175.322 67.9497ZM186.207 72.0128V70.6442L186.848 71.4782L186.207 72.0128ZM194.044 73.4135L192.12 72.5153L193.991 72.2373L194.44 72.3229L194.579 72.7078L194.6 74.6859C193.97 74.5896 193.809 74.1833 194.044 73.4028V73.4135ZM194.59 70.2272L190.569 69.4573C190.495 68.9975 190.869 68.5805 191.35 68.4629L193.381 68.7409L196.022 69.0082L196.065 70.3448L194.59 70.2165V70.2272ZM196.044 65.5439L196.001 63.491V61.8444L196.3 61.4701L195.99 61.0318L195.851 57.8027L196.236 57.0649C196.236 57.0649 196.236 57.0756 196.236 57.0863C196.204 57.0114 196.129 56.8404 196.097 56.7762L195.777 56.1026L195.819 52.0288C195.969 51.8684 196.108 51.7187 196.151 51.6653L195.734 50.8954V46.255L196.14 45.731L195.702 45.1109L195.638 43.614L195.21 43.4429L188.367 43.4643L178.337 43.6033L162.128 43.8064L152.302 43.8706L146.292 44.0203L140.69 44.0844L140.283 44.0416L139.032 44.2341L139.225 44.4266L140.166 44.8757C140.166 44.8757 140.39 44.6618 140.572 44.48L146.111 44.4373L155.531 44.2876L165.335 44.2341L171.751 44.0844L179.759 44.031L187.971 43.892L194.707 43.8064L195.231 44.17L195.327 49.869L195.37 52.2534L195.402 55.8674L195.52 63.074L195.595 64.881L195.573 65.3942L195.146 65.6081L188.153 67.0943L178.359 69.0403L176.017 61.3846L174.199 57.0649L172.211 53.6113C171.077 52.232 169.751 51.2162 168.094 50.5426C166.554 50.0721 164.993 49.7834 163.336 49.5696L159.519 49.3664L149.703 49.6124L144.667 50.425L142.208 51.7615C141.139 52.82 140.241 53.9 139.385 55.1617L136.883 60.2405L135.215 65.4584L134.723 67.0943L126.084 67.2119L124.491 67.2761L122.866 67.1798L125.956 63.7369L134.734 54.1138L138.508 49.9545C138.583 49.2916 138.615 48.5645 138.615 47.8909L138.573 44.2341L138.54 41.422L175.942 40.9836L182.24 40.9088L196.204 40.7377L196.75 41.0264L196.921 48.9922L196.974 54.456L197.028 61.0638L197.102 65.1697L196.065 65.5332L196.044 65.5439ZM206.202 30.5052L205.047 30.6869L204.94 29.3611L206.009 29.7032L206.202 30.5052ZM205.859 28.6875L204.876 28.912L204.779 27.9283L205.485 28.0887L205.913 28.4736C205.913 28.4736 205.87 28.6233 205.859 28.6875ZM205.549 26.9339C205.528 27.1478 205.496 27.4258 205.507 27.383L204.566 26.8912L205.549 26.9339ZM204.052 26.5169L203.496 26.549L202.759 26.0251C203.357 26.0465 203.689 26.2068 204.052 26.5062V26.5169ZM204.256 27.4685L203.892 28.0887C203.208 27.7359 203.037 27.5862 203.026 26.9874L204.245 27.4792L204.256 27.4685ZM200.941 29.4359L199.914 30.0026L199.818 29.0831L200.781 28.4309L200.93 29.4252L200.941 29.4359ZM199.241 41.6573C198.76 41.1868 198.61 40.8446 198.642 40.3956L199.722 39.9999L199.914 40.9516L199.252 41.6573H199.241ZM199.925 42.7372L199.69 43.1542L199.337 43.0686L199.305 42.4592L199.765 42.117L199.925 42.7372ZM199.604 35.3916L199.733 36.8457L198.61 37.1879L198.503 35.8727L199.615 35.3916H199.604ZM198.407 34.9639L198.364 33.7984L199.508 33.2852L199.572 34.6966L198.407 34.9639ZM199.701 37.6262L199.765 39.1446L198.599 39.3584V38.0646L199.701 37.6156V37.6262ZM200.299 28.1422L199.882 28.3239L199.636 27.8214L200.524 27.1692L200.77 27.7252L200.31 28.1422H200.299ZM200.428 26.1641L200.631 26.5169L199.733 27.0408L199.53 26.688L200.428 26.1641ZM198.289 32.8789V31.8524L199.358 31.4354L199.519 32.665L198.289 32.8789ZM199.358 30.2165L199.391 30.7404L198.899 30.8901L198.279 31.0612L198.097 30.302L198.792 29.7781L199.262 29.8743L199.369 30.2165H199.358ZM199.166 29.0617L198.033 29.3825L198.075 28.5485L199.123 28.1101L199.166 29.0617ZM198.311 27.3295L198.984 27.0195L199.006 27.5968L197.958 27.6717L198.321 27.3402L198.311 27.3295ZM197.584 41.529L198.418 42.2346V43.4001L198.204 43.9561L197.573 43.9775V41.5183L197.584 41.529ZM197.883 60.3154L197.69 57.8561L197.947 57.2574L198.685 58.765C198.343 59.5455 198.236 59.8342 197.883 60.3154ZM199.016 46.6399C199.102 46.3512 199.273 46.2657 199.829 46.3619C199.636 46.5223 199.369 46.6185 199.016 46.6399ZM198.974 44.5549L199.786 44.063L199.957 44.9826L198.974 44.5549ZM201.572 45.8059L200.481 46.0304L201.091 45.3889L201.593 44.448L201.572 45.8059ZM200.77 44.5549L200.438 43.6353L201.465 42.7158L201.315 41.9566L200.513 42.4271L200.438 41.4327L201.454 40.5132L201.251 40.032L200.952 40.1924L200.438 40.4276L200.257 39.2836L200.727 38.9521C200.994 38.7062 201.165 38.364 201.283 37.8294L200.417 38.1929L200.16 36.9847L201.176 36.1079L201.123 35.5733L200.802 35.6482L200.46 35.8941L200.021 35.4236L200.46 34.3651C200.92 34.1406 201.005 33.916 201.037 33.3493L200.203 33.7129L200.032 32.6543L201.026 31.831L200.823 31.4675L200.438 31.5637L200.128 31.7882L199.904 31.4461L200.053 30.7511L201.016 29.8529L201.123 31.6172L201.23 32.6543L201.476 38.0326L201.55 40.2566L201.615 42.0743L201.679 43.2932C201.561 43.8385 201.358 44.1806 200.781 44.5656L200.77 44.5549ZM203.111 45.2178L202.919 46.5116L202.652 45.7524L202.427 45.282L202.374 43.6674L202.256 39.9893L202.171 39.2301L201.978 34.4186L201.839 33.0072L201.796 31.831L201.7 29.8102L201.401 27.6075L201.198 25.8219L202.192 25.9182L202.299 27.4044L202.577 29.9064L202.855 33.0179L202.983 36.7816C202.908 36.9526 202.908 37.1451 202.983 37.2627L203.09 39.8396L203.122 41.1333L202.588 41.3258L203.133 41.6573L203.069 43.6246L202.641 43.785L203.015 43.9668L203.144 45.1643C202.62 45.143 202.759 45.1643 203.101 45.2178H203.111ZM203.218 28.3132L204.234 28.8799L204.288 29.7995L203.272 29.3611L203.208 28.3132H203.218ZM204.79 46.0839L203.817 45.2071L204.159 44.8329L205.132 45.7097L204.79 46.0839ZM203.839 42.2774L204.929 43.3253L205.036 44.2341L204.309 43.924L204.02 44.2769L203.828 42.2774H203.839ZM204.908 42.2667L204.448 42.0101L204.127 41.8604L203.903 41.978L203.764 38.8452L203.657 35.2526L203.347 30.0989L204.074 30.3769C204.459 30.6014 204.619 31.1681 204.437 31.5958L203.678 31.3285V31.9486L204.651 32.4939V33.6808L203.913 33.3172L203.785 33.8946L204.726 34.5576L204.801 35.8299L203.881 35.4236C203.785 35.7979 204.031 36.2469 204.405 36.4929L204.854 36.7067L204.886 37.2413L204.801 38.0112L204.106 37.5835L204.149 38.503L205.025 38.9842L204.908 40.0748L204.095 39.6899C203.988 40.0534 204.149 40.5559 204.619 40.7805L205.143 41.561L204.918 42.2667H204.908ZM205.09 31.1574L206.298 31.5316L206.415 32.387L205.175 32.5795L205.079 31.1574H205.09ZM205.229 33.0286L206.458 33.3707L206.554 34.4506H205.346L205.229 33.0286ZM206.49 35.3381L206.736 36.5249L205.442 36.6639L205.357 35.1029L206.49 35.3381ZM205.432 37.2734L206.02 37.3483L206.544 37.4873L206.725 38.0005L206.693 38.8131L205.571 38.9628L205.432 37.2627V37.2734ZM205.71 48.1475L206.576 48.0406C206.373 48.5859 205.998 48.6928 205.71 48.1475ZM205.699 46.1373L206.8 46.0839C206.608 46.5223 206.148 46.7468 205.699 46.1373ZM205.742 44.3303L206.137 43.8599L206.779 44.2127L206.725 44.7366L205.742 44.3303ZM205.763 43.09L205.699 41.8711L206.811 42.0529V43.0259L205.774 43.09H205.763ZM205.656 41.0264L205.56 39.5936L206.725 39.7754L206.822 41.0157H205.656V41.0264Z" fill="black"/>
<path d="M130.361 62.8814C130.562 62.8814 130.724 62.7186 130.724 62.5178C130.724 62.3171 130.562 62.1543 130.361 62.1543C130.16 62.1543 129.997 62.3171 129.997 62.5178C129.997 62.7186 130.16 62.8814 130.361 62.8814Z" fill="black"/>
<path d="M127.217 65.4263C127.014 65.4263 126.843 65.5973 126.843 65.8005C126.843 66.0037 127.014 66.1747 127.217 66.1747C127.42 66.1747 127.591 66.0037 127.591 65.8005C127.591 65.5973 127.42 65.4263 127.217 65.4263Z" fill="black"/>
<path d="M136.808 54.9053C136.605 54.9053 136.434 55.0764 136.434 55.2795C136.434 55.4827 136.605 55.6537 136.808 55.6537C137.011 55.6537 137.183 55.4827 137.183 55.2795C137.183 55.0764 137.011 54.9053 136.808 54.9053Z" fill="black"/>
<path d="M133.782 58.4868C133.59 58.4868 133.44 58.6365 133.44 58.829C133.44 59.0214 133.59 59.1711 133.782 59.1711C133.975 59.1711 134.124 59.0214 134.124 58.829C134.124 58.6365 133.975 58.4868 133.782 58.4868Z" fill="black"/>
<path d="M139.738 52.3815C139.903 52.3815 140.037 52.2474 140.037 52.0821C140.037 51.9168 139.903 51.7827 139.738 51.7827C139.573 51.7827 139.438 51.9168 139.438 52.0821C139.438 52.2474 139.573 52.3815 139.738 52.3815Z" fill="black"/>
<path d="M139.995 49.4092C140.155 49.4092 140.283 49.2809 140.283 49.1205C140.283 48.9601 140.155 48.8318 139.995 48.8318C139.834 48.8318 139.706 48.9601 139.706 49.1205C139.706 49.2809 139.834 49.4092 139.995 49.4092Z" fill="black"/>
<path d="M89.9974 50.1149L90.4037 50.7779C90.6176 51.1093 91.1629 51.3445 91.6013 51.2697L93.4831 51.3232C93.9322 51.3232 94.4882 50.9917 94.7983 50.5961L95.1618 50.0401H97.4927L98.4871 49.5696L98.3588 48.1368L97.6745 47.8161L94.9266 47.8588C94.6165 46.8751 93.7504 46.5116 92.8523 46.6292L91.1308 46.672L90.7566 47.0142L90.254 47.9123L89.5163 48.0192L89.0779 48.5218L89.142 49.4948C89.2383 49.7621 89.5483 49.9973 90.0188 50.1042L89.9974 50.1149ZM97.6424 48.8425C97.4179 49.4734 96.7764 49.3451 96.3914 48.8212C96.7443 48.5004 97.1506 48.4897 97.6424 48.8425ZM93.6756 50.8955H91.3981C91.0025 50.8955 90.671 50.6923 90.4893 50.0935L94.5096 50.0401C94.4454 50.5212 94.0819 50.8313 93.6863 50.8955H93.6756ZM91.3126 47.0248L92.6491 47.0035L94.1033 47.1425L94.4027 47.5808L94.285 47.9444L91.195 48.062L90.3396 47.8375L91.3019 47.0355L91.3126 47.0248Z" fill="black"/>
<path d="M126.469 49.6443L127.666 50.8632H129.687L130.639 50.6387L131.195 50.0613L131.697 49.5053H134.167C134.574 49.3235 134.82 48.9493 134.905 48.4895L134.648 47.6234L133.879 47.324L131.623 47.4417L131.024 47.0781C130.778 46.1372 129.933 45.9233 129.099 46.0196L127.581 46.0623L127.185 46.3831L126.458 47.4096L125.72 47.6555L125.656 48.8637L125.891 49.4732L126.48 49.6122L126.469 49.6443ZM134.007 48.3612C133.686 49.0776 133.055 48.96 132.66 48.4147C133.023 48.0939 133.472 48.0511 134.007 48.3612ZM129.848 50.4783H128.254C127.709 50.521 127.185 50.2644 126.993 49.6122L130.949 49.5694C130.778 50.1147 130.35 50.4034 129.858 50.4783H129.848ZM128.073 46.458L129.088 46.3938C129.751 46.4687 130.468 46.1693 130.821 47.4203L126.907 47.4524C126.875 46.768 127.453 46.3938 128.073 46.458Z" fill="black"/>
<path d="M17.9096 48.7785L20.5186 48.7571C21.2563 48.8106 21.6199 48.4577 21.7909 47.4633C21.5557 47.0891 21.267 46.7683 21.0104 46.6187L18.0914 46.6935C17.4819 46.7577 17.0756 47.1533 17.0115 47.7734C17.1291 48.1797 17.4926 48.5647 17.9203 48.7892L17.9096 48.7785ZM18.0914 47.3137L20.7645 47.2495L21.0746 47.5703L20.711 48.1049L18.0807 48.1263L17.7386 47.7414L18.1021 47.3137H18.0914Z" fill="black"/>
<path d="M116.461 8.99221H119.882L131.473 8.94944L134.51 8.78905L142.903 8.76767L144.924 8.60728L149.137 8.57521C150.035 8.31859 150.826 7.93367 151.5 7.36697C152.419 6.00905 152.152 4.45866 150.933 3.34666C150.067 2.91896 149.115 2.68373 148.132 2.60889L139.92 2.7265L133.098 2.81204L117.701 3.04727C116.439 3.0152 115.338 3.49635 114.472 4.35174C113.809 5.26058 113.745 6.26566 114.119 7.39905C114.654 8.28651 115.488 8.70351 116.482 9.01359L116.461 8.99221ZM115.52 5.22851C116.065 4.87566 116.611 4.60835 117.241 4.49074L122.673 4.39451L129.078 4.33035L138.487 4.21274L148.923 4.1165C149.554 4.33035 150.088 4.71528 150.473 5.15366C150.655 6.06251 150.334 6.55436 149.532 6.98205L146.303 7.15313L142.09 7.1959L134.285 7.3349L129.174 7.38836L121.476 7.51667L117.049 7.57013C116.322 7.4632 115.766 7.12105 115.295 6.57574L115.52 5.22851Z" fill="black"/>
<path d="M142.454 30.227C142.561 31.168 142.86 32.002 143.299 32.868C144.079 33.5737 144.892 33.9907 145.907 34.2366L148.067 34.3008L168.34 34.0549L173.772 33.98L183.577 33.8624L187.169 33.7983C189.201 33.5951 190.612 32.2158 190.933 30.1949L190.772 17.3962L190.516 14.3382C189.906 12.9268 188.923 11.9859 187.362 11.74L180.347 11.7935L157.947 12.1035L147.918 12.1998L145.555 12.2532C144.678 12.4991 143.951 12.8734 143.202 13.4721C142.614 14.4452 142.272 15.4182 142.187 16.5195L142.315 24.7846L142.454 30.2056V30.227ZM179.161 13.8143L184.774 13.7395L187.554 13.7715C188.249 14.2741 188.709 14.9049 188.816 15.7817L188.955 21.4059L189.062 29.5213C189.008 31.0076 187.95 31.8843 186.613 31.9699L167.741 32.141L167.645 26.0036L167.517 13.9319L179.161 13.8143ZM144.624 14.7018L145.694 14.1137L150.73 14.0068L165.132 13.8464H165.678L165.817 14.3917L166.02 32.1944L160.93 32.28L153.52 32.3655L146.902 32.451L145.426 32.1196C144.806 31.5636 144.4 30.8793 144.336 30.0132L144.122 16.188L144.624 14.7125V14.7018Z" fill="black"/>
<path d="M106.752 33.4244C106.763 34.9213 107.982 35.9584 109.447 35.8515L115.071 35.8088L133.258 35.5628C134.787 35.2848 135.728 34.1408 135.707 32.6117L135.536 21.8018L135.418 15.5789C135.236 14.5631 134.606 13.836 133.729 13.3335L131.676 13.1731L123.454 13.3228L109.243 13.4832L107.725 13.8788C107.158 14.4989 106.731 15.1512 106.624 16.0066L106.656 27.6184L106.741 33.4351L106.752 33.4244ZM132.702 14.1033C133.953 14.2744 134.691 15.3329 134.552 16.5946L134.734 30.6016L134.691 33.1998C134.509 33.7131 134.082 34.0552 133.515 34.0659H130.232L130.083 33.4137L129.912 18.808L129.88 14.1675L132.692 14.114L132.702 14.1033ZM109.04 14.3706L120.267 14.2637L128.115 14.1675L128.254 26.207L128.372 34.1514L110.056 34.3546L110.762 30.7299L109.447 29.9066C109.083 29.8424 109.308 29.8852 109.906 29.9814L110.911 29.2864L111.403 26.207L110.665 21.171C110.334 20.508 109.938 20.0376 109.414 19.7061C108.698 19.6526 108.163 19.813 107.426 20.1552L107.404 16.1776C107.575 15.2367 108.089 14.4776 109.051 14.3706H109.04Z" fill="black"/>
<path d="M28.8694 68.2598C23.5767 68.2598 19.2891 72.5581 19.2891 77.8508C19.2891 83.1435 23.5767 87.4418 28.8694 87.4418C34.1621 87.4418 38.4497 83.1435 38.4497 77.8508C38.4497 72.5581 34.1621 68.2598 28.8694 68.2598ZM37.2843 74.5469C38.7277 78.086 37.8403 82.0208 34.9854 84.587C31.8846 87.4418 27.319 87.8267 23.8119 85.4851C21.7376 84.0096 20.369 82.0208 19.8985 79.5295C19.7168 78.0967 19.8023 76.7388 20.091 75.3809L20.786 73.9588L21.2458 74.3223L21.0854 74.8783L20.4225 77.9149L21.1602 81.1547C22.2722 83.4322 24.0578 85.1323 26.5492 85.8914C29.9386 86.8751 33.3388 85.6348 35.52 82.951C35.9905 82.2346 36.3754 81.5289 36.7817 80.7056C37.4019 78.5137 37.3056 76.6212 36.5358 74.3972L37.2843 74.5469ZM35.7339 79.6685L34.4294 82.395L34.4615 83.1328L33.6916 83.6246C33.2639 83.3359 33.1036 83.2718 33.0394 83.368L30.6978 84.5442L29.1153 84.865L27.1265 84.5335L24.9881 83.4643L23.8975 83.0793C23.3521 82.4378 22.8389 81.5183 22.4433 80.6522L21.8873 79.1125L21.4917 78.3212C21.1495 76.1614 22.1225 74.0657 23.6622 72.5688C24.6887 71.5958 25.8435 70.9328 27.2121 70.5372C29.8745 69.9064 32.5903 70.8045 34.3866 72.8789C35.7018 74.1833 36.2685 75.8727 36.3968 77.7546L35.7339 79.6792V79.6685Z" fill="black"/>
<path d="M156.322 87.3884C161.561 87.3884 165.806 83.1435 165.806 77.9043C165.806 72.665 161.561 68.4202 156.322 68.4202C151.083 68.4202 146.838 72.665 146.838 77.9043C146.838 83.1435 151.083 87.3884 156.322 87.3884ZM150.259 73.7129C151.115 72.6116 152.163 71.7989 153.36 71.1146C154.547 70.6121 155.809 70.3769 157.124 70.4517C159.049 70.7939 160.631 71.6706 161.946 73.1248C162.769 74.194 163.261 75.4023 163.625 76.7174L163.454 77.9577C163.165 79.0056 162.866 79.9358 162.459 80.9409L161.337 82.9297C161.337 83.5284 160.588 83.7423 160.128 83.5177L158.717 84.1807L157.744 84.4907L154.729 84.587L153.521 84.0203L151.115 82.5768L150.57 81.4006L149.586 79.5936L149.019 78.1181C148.848 76.4822 149.34 75.0494 150.27 73.6915L150.259 73.7129ZM147.437 76.7067L148.003 74.6859L148.506 74.4293L148.72 74.9211C147.864 77.113 147.929 79.4226 148.944 81.5183C150.356 84.3624 152.997 86.0946 156.13 86.1908C157.733 86.1908 159.155 85.6883 160.578 84.9291C161.401 84.309 162.085 83.6781 162.759 82.9403C163.614 81.7428 164.192 80.417 164.491 78.9414C164.566 77.2948 164.448 75.9689 163.785 74.3758C163.807 74.333 163.946 74.2261 164.202 74.0443C165.293 75.8834 165.453 77.8722 165.026 79.9251C164.512 82.0315 163.464 83.8492 161.732 85.175C157.477 88.3507 151.617 87.2814 148.805 82.8762C147.629 81.005 147.233 78.9414 147.447 76.696L147.437 76.7067Z" fill="black"/>
<path d="M28.8372 72.0342C25.6616 72.0342 23.0847 74.611 23.0847 77.7866C23.0847 80.9623 25.6616 83.5391 28.8372 83.5391C32.0128 83.5391 34.5897 80.9623 34.5897 77.7866C34.5897 74.611 32.0128 72.0342 28.8372 72.0342ZM28.8372 83.058C25.9396 83.058 23.5873 80.7057 23.5873 77.808C23.5873 74.9104 25.9396 72.5581 28.8372 72.5581C31.7348 72.5581 34.0871 74.9104 34.0871 77.808C34.0871 80.7057 31.7348 83.058 28.8372 83.058Z" fill="black"/>
<path d="M156.301 83.4428C159.444 83.4428 161.989 80.898 161.989 77.7545C161.989 74.6109 159.444 72.0662 156.301 72.0662C153.157 72.0662 150.612 74.6109 150.612 77.7545C150.612 80.898 153.157 83.4428 156.301 83.4428ZM156.29 72.6008C159.145 72.6008 161.465 74.921 161.465 77.7759C161.465 80.6307 159.145 82.951 156.29 82.951C153.435 82.951 151.115 80.6307 151.115 77.7759C151.115 74.921 153.435 72.6008 156.29 72.6008Z" fill="black"/>
<path d="M31.5102 77.7651C31.5102 76.2896 30.3127 75.092 28.8371 75.092C27.3616 75.092 26.1641 76.2896 26.1641 77.7651C26.1641 79.2407 27.3616 80.4382 28.8371 80.4382C30.3127 80.4382 31.5102 79.2407 31.5102 77.7651ZM28.4629 77.1236L27.8 77.6689C27.939 77.2519 28.0459 76.9846 28.2063 76.6745L29.3183 76.6424L29.6177 76.9525C29.6284 77.0273 29.6498 77.145 29.6711 77.2198L28.4629 77.1236Z" fill="black"/>
<path d="M26.5705 79.9893C26.0679 79.9893 25.6616 80.3956 25.6616 80.8981C25.6616 81.4007 26.0679 81.807 26.5705 81.807C27.073 81.807 27.4793 81.4007 27.4793 80.8981C27.4793 80.3956 27.073 79.9893 26.5705 79.9893Z" fill="black"/>
<path d="M25.1269 77.4979C25.6288 77.4979 26.0357 77.091 26.0357 76.589C26.0357 76.0871 25.6288 75.6802 25.1269 75.6802C24.6249 75.6802 24.218 76.0871 24.218 76.589C24.218 77.091 24.6249 77.4979 25.1269 77.4979Z" fill="black"/>
<path d="M31.5745 76.5463C31.5745 77.0488 31.9808 77.4552 32.4833 77.4552C32.9859 77.4552 33.3922 77.0488 33.3922 76.5463C33.3922 76.0438 32.9859 75.6375 32.4833 75.6375C31.9808 75.6375 31.5745 76.0438 31.5745 76.5463Z" fill="black"/>
<path d="M28.8586 74.7393C29.3611 74.7393 29.7674 74.333 29.7674 73.8305C29.7674 73.3279 29.3611 72.9216 28.8586 72.9216C28.356 72.9216 27.9497 73.3279 27.9497 73.8305C27.9497 74.333 28.356 74.7393 28.8586 74.7393ZM28.8586 73.499C29.0189 73.499 29.1579 73.6273 29.1579 73.7984C29.1579 73.9695 29.0296 74.0978 28.8586 74.0978C28.6875 74.0978 28.5592 73.9695 28.5592 73.7984C28.5592 73.6273 28.6875 73.499 28.8586 73.499Z" fill="black"/>
<path d="M31.1253 79.9893C30.6335 79.9893 30.2485 80.3849 30.2485 80.866C30.2485 81.3472 30.6442 81.7428 31.1253 81.7428C31.6065 81.7428 32.0021 81.3472 32.0021 80.866C32.0021 80.3849 31.6065 79.9893 31.1253 79.9893ZM30.8152 81.1013V80.6522L31.275 80.6308L31.3498 81.0799L30.8152 81.112V81.1013Z" fill="black"/>
<path d="M159.84 77.4124C160.342 77.4124 160.748 77.0061 160.748 76.5036C160.748 76.001 160.342 75.5947 159.84 75.5947C159.337 75.5947 158.931 76.001 158.931 76.5036C158.931 77.0061 159.337 77.4124 159.84 77.4124ZM159.85 76.1721C160.011 76.1721 160.139 76.3004 160.139 76.4608C160.139 76.6212 160.011 76.7495 159.85 76.7495C159.69 76.7495 159.562 76.6212 159.562 76.4608C159.562 76.3004 159.69 76.1721 159.85 76.1721Z" fill="black"/>
<path d="M153.285 81.4861C153.948 81.9138 154.322 81.9031 154.846 81.5503C155.092 81.1333 154.974 80.7377 154.729 80.0854C154.14 80.0854 153.83 80.1175 153.413 80.3207C153.285 80.727 153.253 81.0478 153.274 81.4861H153.285Z" fill="black"/>
<path d="M158.931 81.7535C159.251 81.283 159.412 80.9195 159.454 80.5987C159.102 80.0106 158.749 79.9679 158.064 79.9358C157.819 80.449 157.68 80.7805 157.594 81.0692C158 81.6893 158.3 81.7963 158.931 81.7535Z" fill="black"/>
<path d="M158.065 79.9357C158.065 79.9357 158.086 79.893 158.097 79.8716C158.086 79.8716 158.065 79.893 158.054 79.893C158.054 79.9037 158.033 79.9144 158.022 79.9357C158.033 79.9357 158.054 79.9357 158.065 79.9357Z" fill="black"/>
<path d="M154.729 80.0854C154.729 80.0854 154.75 80.0854 154.761 80.0854C154.75 80.0854 154.729 80.0747 154.718 80.064C154.718 80.064 154.718 80.0747 154.718 80.0854H154.729Z" fill="black"/>
<path d="M154.793 80.0854C154.793 80.0854 154.782 80.0854 154.772 80.0854C155.905 80.6842 157.06 80.5238 158.054 79.8929C158.706 79.0803 159.123 78.1608 158.909 77.1664L158.642 76.3965C158.118 75.6267 157.306 75.1242 156.343 74.9958C155.156 75.1348 154.183 75.8085 153.745 76.9312C153.392 78.1501 153.841 79.3262 154.793 80.0854ZM155.295 77.006L156.386 76.4928C156.846 76.8135 157.081 77.0488 157.391 77.4551C157.274 77.562 157.199 77.6262 157.156 77.6582L156.429 77.0488L155.68 77.3161L155.199 77.9255L155.306 76.9846L155.295 77.006Z" fill="black"/>
<path d="M153.595 76.5463C153.595 76.0438 153.189 75.6375 152.686 75.6375C152.184 75.6375 151.778 76.0438 151.778 76.5463C151.778 77.0488 152.184 77.4552 152.686 77.4552C153.189 77.4552 153.595 77.0488 153.595 76.5463ZM152.355 76.4501C152.355 76.2897 152.483 76.1614 152.644 76.1614C152.804 76.1614 152.932 76.2897 152.932 76.4501C152.932 76.6105 152.804 76.7388 152.644 76.7388C152.483 76.7388 152.355 76.6105 152.355 76.4501Z" fill="black"/>
<path d="M156.247 74.7285C156.749 74.7285 157.166 74.3222 157.166 73.8089C157.166 73.2957 156.76 72.8894 156.247 72.8894C155.734 72.8894 155.327 73.2957 155.327 73.8089C155.327 74.3222 155.734 74.7285 156.247 74.7285ZM156.236 73.4561C156.418 73.4561 156.557 73.6058 156.557 73.7769C156.557 73.9479 156.407 74.0976 156.236 74.0976C156.065 74.0976 155.915 73.9479 155.915 73.7769C155.915 73.6058 156.065 73.4561 156.236 73.4561Z" fill="black"/>
<path d="M196.963 54.4775L196.91 49.0138L196.739 41.048L196.193 40.7593L182.229 40.9304L175.931 41.0052L138.53 41.4436L138.562 44.2557L138.605 47.9124C138.605 48.5861 138.572 49.3131 138.498 49.9761L134.723 54.1354L125.945 63.7585L122.855 67.2014L124.48 67.2976L126.073 67.2335L134.713 67.1159L135.204 65.4799L136.872 60.2621L139.374 55.1832C140.23 53.9215 141.128 52.8416 142.197 51.7831L144.656 50.4465L149.692 49.6339L159.508 49.388L163.325 49.5911C164.983 49.805 166.544 50.0937 168.083 50.5641C169.73 51.2378 171.056 52.2535 172.2 53.6328L174.189 57.0865L176.006 61.4062L178.348 69.0619L188.142 67.1159L195.135 65.6296L195.563 65.4158L195.584 64.9026L195.509 63.0956L195.391 55.8889L195.359 52.2749L195.317 49.8905L195.22 44.1915L194.696 43.828L187.96 43.9135L179.749 44.0525L171.74 44.106L165.325 44.2557L155.52 44.3091L146.1 44.4588L140.561 44.5016C140.379 44.6834 140.112 44.9507 140.155 44.8972L139.214 44.4481L139.022 44.2557L140.273 44.0632L140.679 44.106L146.282 44.0418L152.291 43.8921L162.117 43.828L178.327 43.6248L188.356 43.4858L195.199 43.4644L195.627 43.6355L195.691 45.1324L196.129 45.7526L195.712 46.2765V50.917L196.14 51.6868C196.097 51.7296 195.958 51.89 195.808 52.0504L195.766 56.1242L196.086 56.7978C196.119 56.8619 196.183 57.0009 196.215 57.0865L195.83 57.8242L195.969 61.0533L196.279 61.4917L195.99 61.8659V63.5126L196.022 65.5655L197.06 65.2019L196.985 61.0961L196.931 54.4882L196.963 54.4775ZM127.217 66.1856C127.014 66.1856 126.843 66.0146 126.843 65.8114C126.843 65.6082 127.014 65.4372 127.217 65.4372C127.42 65.4372 127.591 65.6082 127.591 65.8114C127.591 66.0146 127.42 66.1856 127.217 66.1856ZM130.361 62.871C130.158 62.871 129.997 62.7106 129.997 62.5075C129.997 62.3043 130.158 62.1439 130.361 62.1439C130.564 62.1439 130.724 62.3043 130.724 62.5075C130.724 62.7106 130.564 62.871 130.361 62.871ZM133.782 59.1822C133.59 59.1822 133.44 59.0325 133.44 58.84C133.44 58.6475 133.59 58.4979 133.782 58.4979C133.975 58.4979 134.124 58.6475 134.124 58.84C134.124 59.0325 133.975 59.1822 133.782 59.1822ZM136.808 55.6537C136.605 55.6537 136.434 55.4826 136.434 55.2795C136.434 55.0763 136.605 54.9052 136.808 54.9052C137.011 54.9052 137.182 55.0763 137.182 55.2795C137.182 55.4826 137.011 55.6537 136.808 55.6537ZM139.995 48.832C140.155 48.832 140.283 48.9603 140.283 49.1207C140.283 49.2811 140.155 49.4094 139.995 49.4094C139.834 49.4094 139.706 49.2811 139.706 49.1207C139.706 48.9603 139.834 48.832 139.995 48.832ZM139.738 51.7938C139.898 51.7938 140.037 51.9221 140.037 52.0931C140.037 52.2642 139.909 52.3925 139.738 52.3925C139.567 52.3925 139.439 52.2642 139.439 52.0931C139.439 51.9221 139.567 51.7938 139.738 51.7938Z" fill="#F4F4EF"/>
<path d="M78.193 67.6504L84.6191 67.5435L93.0233 67.4259L101.128 67.319L101.01 52.6919L100.829 42.0316L99.9947 41.9033L62.0155 42.4059L61.3954 42.5662L61.3098 44.0739L61.3419 54.2743L61.4809 61.1709L62.8281 61.2137C63.1703 61.2992 63.6514 61.5558 63.9829 61.8231L63.9294 64.7207C64.0791 65.2981 63.6087 65.8541 63.0099 65.929L61.5664 65.9824L61.4702 67.1479L61.7589 67.8857L78.1716 67.6504H78.193ZM89.4841 48.03L90.2219 47.9231L90.7244 47.0249L91.0986 46.6828L92.8201 46.64C93.729 46.5224 94.5843 46.8859 94.8944 47.8696L97.6423 47.8269L98.3267 48.1476L98.455 49.5804L97.4606 50.0616H95.1296L94.7661 50.5962C94.4667 50.9918 93.9107 51.3233 93.451 51.3233L91.5691 51.2698C91.1307 51.3446 90.5854 51.1094 90.3716 50.778L89.9653 50.115C89.4948 49.9974 89.1847 49.7729 89.0885 49.5056L89.0243 48.5326L89.4627 48.03H89.4841Z" fill="#F4F4EF"/>
<path d="M107.661 67.2655L113.863 67.1479L121.069 67.073L122.053 66.9661L124.095 64.6565L131.345 56.7442L134.007 53.7718L137.439 49.976C137.728 49.6445 137.888 49.142 137.91 48.6608L137.749 41.4221L132.457 41.4649L104.656 41.7963C104.475 41.9353 104.325 42.085 104.229 42.2027L104.261 49.8584L104.389 60.6576L105.875 60.7111C106.389 60.679 106.848 61.1388 106.784 61.652L106.838 64.5389C106.645 64.8918 106.25 65.2553 105.929 65.3515L104.507 65.3729V67.3082L107.65 67.2655H107.661ZM125.71 47.6771L126.447 47.4312L127.174 46.4047L127.57 46.084L129.088 46.0412C129.922 45.945 130.767 46.1588 131.013 47.0997L131.612 47.4633L133.868 47.3457L134.638 47.6451L134.894 48.5111C134.798 48.9709 134.563 49.3451 134.157 49.5376H131.687L131.184 50.0829L130.628 50.6603L129.677 50.8741H127.656L126.458 49.6659L125.87 49.5269L125.635 48.9174L125.699 47.7092L125.71 47.6771Z" fill="#F4F4EF"/>
<path d="M58.4015 55.6751L58.3373 42.3311L49.7407 42.4807L25.9823 42.9191L20.3154 43.0154L17.1077 43.0902L13.6968 43.1651C11.9112 43.1757 10.2005 43.5821 8.63938 44.384C7.13176 45.2928 6.26568 46.7149 6.03045 48.4685C5.87007 50.7673 5.8166 52.9699 5.83799 55.3115C5.9663 58.6369 6.12668 61.8125 6.44745 65.095L6.59714 65.9932L7.00345 66.4316L7.37768 65.9504L8.42553 62.4647L10.8313 56.6267C11.4622 55.5468 12.1465 54.5096 12.9484 53.4511L14.6485 51.9969C15.846 51.3981 17.0863 50.9598 18.4656 50.5641L23.5124 49.9761L34.1192 49.8478L38.9414 50.3289C40.1176 50.6069 41.1975 50.9491 42.3416 51.3768C43.6354 52.1894 44.7901 53.0982 45.6562 54.2851L46.5116 55.6537C47.7091 57.9739 48.6287 60.3156 49.3771 62.7962L51.0131 68.1637L58.4549 68.014L58.3801 55.6537L58.4015 55.6751ZM20.5186 48.7571L17.9096 48.7785C17.4819 48.554 17.1184 48.1691 17.0008 47.7628C17.0649 47.1426 17.4605 46.747 18.0807 46.6828L20.9997 46.608C21.2563 46.7577 21.545 47.0891 21.7802 47.4527C21.6092 48.4471 21.2456 48.7999 20.5079 48.7465L20.5186 48.7571Z" fill="#F4F4EF"/>
<path d="M109.383 9.6338L121.08 9.41996L131.387 9.3558L134.317 9.19542L149.351 9.08849L195.712 8.50041C195.766 7.77334 195.766 7.15318 195.734 6.50095L195.606 3.33602L195.477 2.28817C195.338 1.76425 194.953 1.31517 194.429 1.15479L188.773 1.22963L173.718 1.42209L161.337 1.57179L144.314 1.77494L127.677 1.97809L109.073 2.22402C109.318 3.72094 109.415 4.97195 109.457 6.35126L109.383 9.62311V9.6338ZM114.451 4.31971C115.328 3.46433 116.418 2.99387 117.68 3.01525L133.077 2.78002L139.898 2.69448L148.11 2.57686C149.105 2.64102 150.046 2.88694 150.912 3.31464C152.131 4.43733 152.398 5.97703 151.478 7.33495C150.805 7.91234 150.003 8.29726 149.115 8.54318L144.902 8.57526L142.882 8.73565L134.488 8.75703L131.452 8.91742L119.861 8.97088H116.44C115.445 8.6608 114.611 8.2438 114.077 7.35634C113.702 6.21226 113.766 5.20718 114.429 4.30902L114.451 4.31971Z" fill="#F4F4EF"/>
<path d="M196.504 35.0922L196.183 10.7244L137.888 11.5049L138.209 35.8727L196.504 35.0922ZM143.202 13.483C143.94 12.8842 144.667 12.51 145.555 12.2641L147.918 12.2106L157.947 12.1144L180.347 11.8043L187.362 11.7508C188.912 11.9861 189.906 12.9377 190.516 14.3491L190.772 17.4071L190.933 30.2058C190.623 32.2373 189.211 33.6059 187.169 33.8091L183.577 33.8733L173.772 33.9909L168.34 34.0657L148.067 34.3116L145.907 34.2475C144.892 34.0016 144.079 33.5739 143.298 32.8789C142.86 32.0128 142.561 31.1788 142.454 30.2379L142.315 24.8169L142.187 16.5517C142.283 15.4504 142.614 14.4774 143.202 13.5044V13.483Z" fill="#F4F4EF"/>
<path d="M69.3934 41.6785L76.2471 41.5609L87.0143 41.4112L97.8243 41.2722L100.829 41.2081L100.807 35.8191L100.765 27.8106L100.743 21.8443L100.69 12.1036L99.6313 12.0073L85.8168 12.2105L71.4997 12.3602L68.0034 19.8234L65.3196 25.5973L63.3629 29.6283L61.2886 34.3971L61.342 36.8028L62.3578 36.5141L65.0523 36.1934L64.9453 35.8619C64.3359 35.2845 64.0793 34.5681 64.0579 33.7662L64.2503 32.6114L64.8064 31.2321L65.063 27.586L65.758 25.6294L67.4367 25.3941L67.9606 24.528L72.2268 15.4182C72.708 14.7125 73.3602 14.1672 74.1835 13.9747L81.4115 13.9106L89.8157 13.7929L95.2153 13.7181C96.4556 13.6539 97.2576 14.2313 97.8884 15.4503L97.9205 17.5887L98.0381 33.7555C97.7173 34.9744 97.0009 35.7871 95.8141 35.9902L91.7938 36.0651L67.597 36.3858C67.3939 36.4607 67.18 36.6531 67.18 36.7921L66.6668 37.5834L64.3038 38.3746L63.7478 38.952L63.7799 41.0156L63.4591 41.7427L69.3827 41.6678L69.3934 41.6785Z" fill="#F4F4EF"/>
<path d="M105.907 41.1761L112.087 41.0585L137.61 40.7591L137.482 26.6025L137.289 11.9647L137.011 11.5156L131.483 11.6119L115.68 11.8043L103.876 11.9647L103.951 23.1916L104.079 36.2149L104.175 36.6319L104.656 36.7495L105.726 36.7174C106.196 36.8351 106.581 37.2948 106.581 37.7867L106.613 40.0855C106.581 40.5132 106.282 40.9516 105.929 41.1655L105.907 41.1761ZM107.746 13.8679L109.265 13.4723L123.475 13.3119L131.697 13.1622L133.75 13.3226C134.627 13.8252 135.247 14.5522 135.439 15.568L135.557 21.791L135.728 32.6009C135.75 34.1299 134.819 35.274 133.28 35.552L115.092 35.7979L109.468 35.8407C108.003 35.9476 106.784 34.9104 106.773 33.4135L106.688 27.5969L106.656 15.985C106.763 15.1296 107.19 14.4774 107.757 13.8572L107.746 13.8679Z" fill="#F4F4EF"/>
<path d="M131.088 67.7359H126.084L124.469 67.768L114.472 67.8749L108.057 67.9498L99.4494 68.046L91.6226 68.1529L73.2211 68.4416L62.7426 68.5913L51.5692 68.7303L51.1628 68.9549L51.3339 69.3184L51.8044 71.1147C52.478 71.4355 53.1837 71.6493 53.9963 71.7028L75.0816 71.3499L80.6309 71.2644L96.2417 71.0399L110.462 70.8581L123.678 70.6656L132.906 70.4946C133.28 70.3769 133.718 70.1845 133.964 70.0241L134.584 67.7039L131.077 67.7252L131.088 67.7359Z" fill="#F4F4EF"/>
<path d="M48.4147 62.0798C47.6556 60.0162 46.875 58.0702 45.9341 56.1349C44.9076 54.3386 43.6032 52.9272 41.8069 51.9542C40.3099 51.4195 38.7702 51.0774 37.1236 50.8742L33.531 50.6069L24.7312 50.6711L19.7058 51.1309L15.8993 52.1894C14.7125 52.9379 13.7181 53.7826 12.8413 54.8732L11.8363 56.4236C10.8419 58.4444 10.0079 60.4759 9.22734 62.6572L8.62857 64.4856L8.13672 66.4102L9.48395 66.0787L10.8526 65.095L11.8042 62.6251L13.3118 59.6419C14.1672 58.4551 15.076 57.5569 16.2629 56.8085C17.407 56.2953 18.5938 55.8996 19.8876 55.6109L23.1274 55.1512L32.3335 54.8411L36.9525 55.1619L40.0212 55.9317C41.3471 56.5519 42.4056 57.3538 43.3572 58.4872L44.9718 61.2351L47.3883 67.6826L48.0084 69.233L50.8205 70.7299L49.8475 66.8807L48.4147 62.0691V62.0798Z" fill="#F4F4EF"/>
<path d="M174.05 58.455L172.403 55.2794C171.206 53.1195 169.356 51.7081 166.971 50.9917L162.342 50.2646H151.532L145.726 50.9917C144.346 51.3873 143.224 51.9754 142.122 52.895C141.075 54.146 140.176 55.429 139.332 56.7977L137.3 61.3526L135.108 68.8907L134.969 69.7675L137.76 68.3775L138.252 67.2548L138.744 65.4798L141.064 59.8557L141.705 58.8613C142.571 57.4713 143.78 56.3807 145.287 55.6857L146.966 55.151C151.457 54.4667 155.948 54.2101 160.524 54.4133L163.325 54.6485L166.02 55.1083L168.992 56.4555C169.741 57.236 170.361 57.9738 171.024 58.8185L172.724 62.4646L174.199 66.6453C174.456 67.1371 174.873 67.5862 175.333 67.9498L177.471 68.9121C177.022 66.7308 176.423 64.8383 175.728 62.8281L174.05 58.455Z" fill="#F4F4EF"/>
<path d="M89.2703 9.87983L108.88 9.62322L109.083 6.76837L108.944 4.55505L108.709 2.27759L107.447 2.29897L97.1933 4.03113L89.2489 5.38906L78.8239 7.07844L77.9685 7.21744L74.0017 7.91244C73.018 8.17975 72.2802 8.68229 71.6708 9.47352C71.5425 9.69806 71.4676 9.91191 71.6708 10.0616L89.281 9.87983H89.2703Z" fill="#F4F4EF"/>
<path d="M8.75697 42.8441C10.564 42.224 12.3496 41.8925 14.4025 41.8818L24.3143 41.8283L31.7455 41.7642L51.9433 41.4755L57.8455 41.4113L57.9524 39.6364V37.8401C57.7278 37.3696 57.3429 37.0382 56.7762 37.0061L41.9246 38.0219L26.132 39.2622L12.9163 40.6308L9.45197 41.2723C8.21166 41.6786 7.11036 42.2667 6.63989 43.6353L7.48459 43.7423L8.76767 42.8334L8.75697 42.8441Z" fill="#F4F4EF"/>
<path d="M196.575 38.0084L138.338 38.6895L138.364 40.8812L196.601 40.2002L196.575 38.0084Z" fill="#F4F4EF"/>
<path d="M196.568 9.11069L69.9595 10.6797L69.968 11.3639L196.577 9.79495L196.568 9.11069Z" fill="#F4F4EF"/>
<path d="M143.726 37.7976L162.534 37.573L173.761 37.4554L180.978 37.4126L196.525 37.2629L196.589 36.2686L194.761 36.3327L170.585 36.6535L168.34 36.6642L154.14 36.8459L147.918 36.8994L138.829 36.9849L138.861 36.5145L138.348 36.5679L138.198 37.0277L138.316 37.8617L143.726 37.7976Z" fill="#F4F4EF"/>
<path d="M103.234 12.1465L102.464 11.9434L101.331 12.0503L101.288 14.1994L101.417 32.4085L101.481 37.4232C101.791 37.0383 102.208 36.7603 102.678 36.7603L103.437 36.5143L103.277 20.8073L103.234 12.1572V12.1465Z" fill="#F4F4EF"/>
<path d="M128.49 74.5149L124.288 75.0816L122.994 74.964L121.486 75.6376L111.467 75.8514C110.516 75.9156 109.596 75.9263 108.645 75.8942L102.443 75.9263L97.8347 76.0653H96.8189L87.0247 76.2364L85.8165 76.2791H83.1969L75.199 76.4502C74.3116 76.5144 73.4669 76.525 72.5901 76.493L69.9705 76.4502C69.1686 76.4502 68.388 76.2043 67.7144 75.7766L63.1702 75.659L61.1279 75.3917C60.604 75.4879 60.2832 75.5948 59.5027 76.0546L61.1493 76.6213L63.384 77.0062L69.1792 77.1559L72.5901 77.0062L75.1883 76.9848L77.6048 77.0062L85.8058 76.8458C86.2121 76.8031 86.6077 76.803 87.0247 76.8351L96.8189 76.6427L97.8454 76.6106L108.634 76.4288C109.596 76.354 110.505 76.3433 111.467 76.3754L120.673 76.2898L124.084 76.1936C126.116 76.0867 127.944 75.83 129.933 75.242L129.388 74.5683L128.5 74.5363L128.49 74.5149Z" fill="#F4F4EF"/>
<path d="M60.7753 58.0701L60.6363 42.4379L58.9041 42.4165L58.8186 46.8645V50.8634L58.8828 54.2315L58.9683 62.4967L59.0004 68.0567L60.8715 68.0032L60.9036 66.1428L60.1445 65.9824C59.8023 65.8755 59.3746 65.6189 59.1715 65.3943L59.1928 61.6841L60.1338 61.2457L60.8501 61.1495L60.7967 58.0808L60.7753 58.0701Z" fill="#F4F4EF"/>
<path d="M101.737 61.0639C101.834 61.1067 102.069 61.2136 101.941 61.1601C102.454 60.8715 102.636 60.7859 103.117 60.6362C103.502 60.6897 103.758 60.54 103.737 60.3368L103.662 52.478L103.566 42.7159L103.427 41.8391L101.502 41.9567L101.652 52.8736L101.737 61.0639Z" fill="#F4F4EF"/>
<path d="M203.154 45.1537L203.026 43.9562L202.652 43.7744L203.079 43.614L203.144 41.6466L202.598 41.3152L203.133 41.1227L203.101 39.8289L202.994 37.2521C202.908 37.1345 202.908 36.9313 202.994 36.7709L202.866 33.0072L202.588 29.8957L202.31 27.3937L202.203 25.9075L201.208 25.8113L201.411 27.5969L201.711 29.7995L201.807 31.8204L201.85 32.9965L201.989 34.4079L202.181 39.2195L202.267 39.9786L202.384 43.6568L202.438 45.2713L202.662 45.7418L202.93 46.5009L203.122 45.2072C202.78 45.1537 202.641 45.1323 203.165 45.1537H203.154Z" fill="#F4F4EF"/>
<path d="M121.675 74.4866L68.9895 75.3142L68.9974 75.8167L121.683 74.989L121.675 74.4866Z" fill="#F4F4EF"/>
<path d="M70.2045 12.1018L61.689 30.0032L62.3552 30.3201L70.8707 12.4187L70.2045 12.1018Z" fill="#F4F4EF"/>
<path d="M201.54 40.2567L201.465 38.0327L201.219 32.6544L201.112 31.6173L201.005 29.853L200.043 30.7512L199.893 31.4462L200.118 31.7883L200.428 31.5638L200.813 31.4676L201.016 31.8311L200.021 32.6544L200.192 33.713L201.026 33.3494C200.994 33.9161 200.909 34.1407 200.449 34.3652L200.011 35.4237L200.449 35.8942L200.791 35.6483L201.112 35.5734L201.165 36.108L200.15 36.9848L200.406 38.193L201.272 37.8295C201.144 38.3641 200.984 38.7063 200.716 38.9522L200.246 39.2837L200.428 40.4277L200.941 40.1925L201.24 40.0321L201.443 40.5133L200.428 41.4328L200.503 42.4272L201.304 41.9567L201.454 42.7159L200.428 43.6354L200.759 44.555C201.337 44.1701 201.54 43.8279 201.657 43.2826L201.593 42.0637L201.529 40.246L201.54 40.2567Z" fill="#F4F4EF"/>
<path d="M60.3795 41.7965L59.2034 41.4223L59.1606 37.6372L59.9305 37.2523L60.6682 37.124L60.6468 34.1943L62.0155 31.008L61.7054 30.623L61.2242 30.8369L59.9518 33.5634C59.0537 34.8893 58.6901 36.4076 58.9681 38.0435C58.9681 38.6102 58.9468 39.1876 58.8826 39.7115L58.7864 41.3581L59.0644 41.8607L60.4009 41.8072L60.3795 41.7965Z" fill="#F4F4EF"/>
<path d="M204.095 39.6901L204.908 40.0751L205.025 38.9844L204.149 38.5033L204.106 37.5838L204.801 38.0114L204.886 37.2416L204.854 36.707L204.405 36.4931C204.031 36.2365 203.785 35.7874 203.881 35.4239L204.801 35.8302L204.726 34.5578L203.785 33.8949L203.913 33.3175L204.651 33.6811V32.4942L203.657 31.9489V31.3287L204.427 31.596C204.608 31.1684 204.448 30.6017 204.063 30.3771L203.336 30.0991L203.646 35.2528L203.753 38.8454L203.892 41.9783L204.116 41.8607L204.437 42.0104L204.897 42.267L205.122 41.5613L204.598 40.7808C204.127 40.5562 203.967 40.043 204.074 39.6901H204.095Z" fill="#F4F4EF"/>
<path d="M105.33 64.6138C105.427 64.1434 105.48 64.0151 105.63 63.7691L106.25 63.983L106.207 61.898L106.111 61.3313L105.459 61.3527H103.78L103.652 62.1439L103.021 62.2829V63.7478L103.641 63.8226L103.865 64.5925H105.309L105.33 64.6138Z" fill="#F4F4EF"/>
<path d="M62.4646 65.2552L62.5929 64.3678C63.2238 64.325 63.2665 64.3143 63.2238 64.2822L63.32 62.4966C63.32 62.4218 63.32 62.3255 63.32 62.2507L62.7426 62.6998L62.3898 62.4004L62.5501 61.8765L61.0104 61.9085C60.8501 62.5608 60.818 62.6677 60.4972 63.0419L60.4758 64.1967C60.8287 64.4854 60.8608 64.5816 61.0211 65.2552H62.486H62.4646Z" fill="#F4F4EF"/>
<path d="M193.381 68.7516L191.35 68.4736C190.869 68.5912 190.494 69.0082 190.569 69.468L194.589 70.2379L196.065 70.3662L196.022 69.0296L193.381 68.7623V68.7516Z" fill="#F4F4EF"/>
<path d="M103.181 38.3643L102.935 39.3266L103.523 39.797L103.662 40.5241L104.999 40.4599L105.18 39.7115L105.972 39.5297L105.886 38.0756L105.341 38.2787L105.084 37.8083L104.806 37.2629L103.566 37.4233C103.609 37.8403 103.641 38.1611 103.192 38.3643H103.181Z" fill="#F4F4EF"/>
<path d="M66.0465 26.7521C65.7258 29.1365 65.5654 31.275 65.5012 33.6273C65.5761 34.1085 65.6402 34.5682 65.8434 34.9532L66.6453 28.6126L67.1692 26.8163C66.8378 26.5062 66.4208 26.4207 66.0572 26.7628L66.0465 26.7521Z" fill="#F4F4EF"/>
<path d="M103.822 66.9552L103.726 65.362L102.764 65.4262L101.812 64.9343V67.308L103.534 67.3936L103.822 66.9552Z" fill="#F4F4EF"/>
<path d="M1.42208 67.1799L1.04785 67.8963L1.15477 71.5424L1.36862 69.3719L1.41139 68.3882L1.91393 67.768L4.90778 67.6932L5.35686 67.5969L6.32986 67.351L2.88693 67.2655L1.42208 67.1799Z" fill="#F4F4EF"/>
<path d="M67.9816 35.6909L68.3986 35.2739L68.3665 30.4945L68.174 30.0668V28.3025L68.003 27.8642L67.864 26.7949L67.7463 29.2542L67.9709 29.4894L68.0243 33.36C68.2275 33.7556 68.2168 34.3223 68.0671 34.6966L67.9923 35.7016L67.9816 35.6909Z" fill="#F4F4EF"/>
<path d="M3.60332 52.6598L3.56055 54.8838L3.7637 56.1027C4.02032 55.9317 4.23416 55.6216 4.29832 55.3222L4.25555 52.061L3.66747 52.1252L3.60332 52.6491V52.6598Z" fill="#F4F4EF"/>
<path d="M59.9626 31.8418L61.2457 29.265L61.5771 28.4951C60.8073 28.57 60.6897 28.88 60.5186 29.3719L59.2676 32.3978L59.3317 33.018L59.9733 31.8525L59.9626 31.8418Z" fill="#F4F4EF"/>
<path d="M194.44 72.3228L193.991 72.2373L192.12 72.5153L194.044 73.4135C193.809 74.1833 193.969 74.6003 194.6 74.6965L194.579 72.7185L194.44 72.3335V72.3228Z" fill="#F4F4EF"/>
<path d="M134.413 76.0119L137.439 76.3861L137.418 74.9961L134.413 76.0119Z" fill="#F4F4EF"/>
<path d="M61.8123 38.0112L62.6998 37.808L65.0521 37.113L65.9609 36.9526C66.271 36.5677 66.1213 36.5998 65.7684 36.8029L64.6244 36.8778L62.9243 37.1023L61.1387 37.6476L61.823 38.0112H61.8123Z" fill="#F4F4EF"/>
<path d="M198.417 43.4002L198.428 42.2454L197.583 41.5291V43.9883L198.214 43.9669L198.417 43.4002Z" fill="#F4F4EF"/>
<path d="M206.693 38.8238L206.725 38.0112L206.544 37.498L206.02 37.359L205.432 37.2734L205.581 38.9735L206.693 38.8238Z" fill="#F4F4EF"/>
<path d="M199.775 39.1448L199.701 37.6265L198.589 38.0649L198.599 39.3586L199.775 39.1448Z" fill="#F4F4EF"/>
<path d="M206.726 36.5251L206.49 35.3383L205.357 35.103L205.442 36.6641L206.726 36.5251Z" fill="#F4F4EF"/>
<path d="M198.364 33.7984L198.407 34.9639L199.572 34.7073L199.508 33.2959L198.364 33.7984Z" fill="#F4F4EF"/>
<path d="M5.45189 64.3118L4.50366 64.3921L4.65613 66.1926L5.60435 66.1124L5.45189 64.3118Z" fill="#F4F4EF"/>
<path d="M206.726 39.7862L205.56 39.5938L205.656 41.0265H206.822L206.726 39.7862Z" fill="#F4F4EF"/>
<path d="M197.69 57.8561L197.883 60.3153C198.236 59.8342 198.353 59.5455 198.685 58.7649L197.947 57.2573L197.69 57.8561Z" fill="#F4F4EF"/>
<path d="M206.458 33.3603L205.229 33.0288L205.346 34.4295L206.554 34.4402L206.458 33.3603Z" fill="#F4F4EF"/>
<path d="M199.733 36.8458L199.604 35.3916L198.503 35.8728L198.61 37.1879L199.733 36.8458Z" fill="#F4F4EF"/>
<path d="M198.642 40.3959C198.61 40.8556 198.76 41.1871 199.241 41.6576L199.904 40.9519L199.711 40.0002L198.631 40.3959H198.642Z" fill="#F4F4EF"/>
<path d="M198.279 31.8632L198.289 32.879L199.508 32.6652L199.348 31.4355L198.279 31.8632Z" fill="#F4F4EF"/>
<path d="M206.298 31.5317L205.09 31.1575L205.186 32.5796L206.426 32.3871L206.298 31.5317Z" fill="#F4F4EF"/>
<path d="M205.036 44.234L204.918 43.3359L203.838 42.2773L204.02 44.2875L204.309 43.924L205.036 44.234Z" fill="#F4F4EF"/>
<path d="M205.699 41.8713L205.763 43.0903L206.811 43.0261V42.0531L205.699 41.8713Z" fill="#F4F4EF"/>
<path d="M198.086 30.302L198.268 31.0612L198.888 30.8901L199.38 30.7404L199.359 30.2165L199.241 29.8743L198.77 29.7781L198.086 30.302Z" fill="#F4F4EF"/>
<path d="M205.036 30.6869L206.201 30.5052L206.009 29.7032L204.94 29.3611L205.036 30.6869Z" fill="#F4F4EF"/>
<path d="M199.914 30.0134L200.941 29.436L200.78 28.4417L199.818 29.0939L199.914 30.0134Z" fill="#F4F4EF"/>
<path d="M198.022 29.3825L199.166 29.0617L199.112 28.1101L198.064 28.5485L198.022 29.3825Z" fill="#F4F4EF"/>
<path d="M204.245 28.8692L203.219 28.3132L203.283 29.3611L204.298 29.7888L204.245 28.8692Z" fill="#F4F4EF"/>
<path d="M3.84937 59.7594L4.02044 61.3847L4.66198 62.1545L4.30914 59.738L3.84937 59.7594Z" fill="#F4F4EF"/>
<path d="M4.26598 49.2168L3.87036 49.6017L3.90244 51.4622L4.29805 51.366L4.26598 49.2168Z" fill="#F4F4EF"/>
<path d="M74.966 73.4652L74.0386 73.5374L74.1157 74.5287L75.0432 74.4566L74.966 73.4652Z" fill="#F4F4EF"/>
<path d="M115.787 73.4137C115.787 73.1143 115.541 72.8684 115.253 72.8684C114.964 72.8684 114.718 73.1143 114.718 73.4137C114.718 73.7131 114.964 73.959 115.253 73.959C115.541 73.959 115.787 73.7131 115.787 73.4137Z" fill="#F4F4EF"/>
<path d="M205.485 28.0889L204.78 27.9285L204.876 28.9122L205.859 28.6876C205.881 28.6235 205.913 28.5059 205.913 28.4738L205.485 28.0889Z" fill="#F4F4EF"/>
<path d="M59.5454 62.6997L59.6737 64.5281L59.8341 62.6142L60.4436 62.0261L59.7593 61.9727L59.5454 62.6997Z" fill="#F4F4EF"/>
<path d="M171.056 36.0332H167.346V36.2364H171.056V36.0332Z" fill="#F4F4EF"/>
<path d="M203.892 28.0886L204.255 27.4684L203.036 26.9766C203.036 27.5753 203.207 27.7357 203.902 28.0779L203.892 28.0886Z" fill="#F4F4EF"/>
<path d="M199.626 27.8216L199.872 28.3242L200.299 28.1424L200.759 27.7254L200.513 27.1587L199.626 27.8216Z" fill="#F4F4EF"/>
<path d="M200.481 46.0305L201.572 45.8059L201.593 44.448L201.091 45.3889L200.481 46.0305Z" fill="#F4F4EF"/>
<path d="M204.156 44.8397L203.82 45.2131L204.789 46.0862L205.125 45.7128L204.156 44.8397Z" fill="#F4F4EF"/>
<path d="M4.61918 48.0085L4.25564 47.6235L3.4751 48.6072L4.13802 48.6821L4.61918 48.0085Z" fill="#F4F4EF"/>
<path d="M206.127 43.8706L205.742 44.3304L206.725 44.7474L206.768 44.2128L206.127 43.8706Z" fill="#F4F4EF"/>
<path d="M199.337 43.0581L199.69 43.1543L199.925 42.7373L199.765 42.1064L199.305 42.4486L199.337 43.0581Z" fill="#F4F4EF"/>
<path d="M200.422 26.1545L199.517 26.6838L199.723 27.0345L200.627 26.5052L200.422 26.1545Z" fill="#F4F4EF"/>
<path d="M186.207 72.0129L186.848 71.4676L186.207 70.6443V72.0129Z" fill="#F4F4EF"/>
<path d="M198.974 44.5548L199.957 44.9825L199.786 44.063L198.974 44.5548Z" fill="#F4F4EF"/>
<path d="M4.28763 56.6799H4.08447V58.5832H4.28763V56.6799Z" fill="#F4F4EF"/>
<path d="M198.973 27.0195L198.311 27.3296L197.947 27.6718L198.995 27.5969L198.973 27.0195Z" fill="#F4F4EF"/>
<path d="M204.052 26.517C203.689 26.2177 203.357 26.0466 202.759 26.0359L203.496 26.5598L204.052 26.5277V26.517Z" fill="#F4F4EF"/>
<path d="M206.8 46.084L205.699 46.1374C206.148 46.7469 206.608 46.5224 206.8 46.084Z" fill="#F4F4EF"/>
<path d="M205.549 26.9341L204.566 26.8914L205.507 27.3832C205.507 27.3832 205.528 27.148 205.549 26.9341Z" fill="#F4F4EF"/>
<path d="M102.871 64.7419C103.48 64.6136 103.341 64.4212 102.817 64.1646L102.261 64.218L102.871 64.7419Z" fill="#F4F4EF"/>
<path d="M194.975 35.7338C195.584 35.83 196.119 35.83 196.621 35.7338C196.012 35.6376 195.477 35.6376 194.975 35.7338Z" fill="#F4F4EF"/>
<path d="M102.903 61.3205L102.443 61.5879L102.507 61.8338L103.213 61.5879C103.331 61.5558 102.978 61.2671 102.903 61.3205Z" fill="#F4F4EF"/>
<path d="M206.576 48.0515L205.709 48.1584C206.009 48.7037 206.383 48.6075 206.576 48.0515Z" fill="#F4F4EF"/>
<path d="M63.0847 40.2567C63.1702 39.7114 63.1702 39.2409 63.0847 38.8132C62.9991 39.3585 62.9991 39.829 63.0847 40.2567Z" fill="#F4F4EF"/>
<path d="M102.732 40.4597L103.128 40.3314L102.956 39.8289L102.572 39.9572L102.732 40.4597Z" fill="#F4F4EF"/>
<path d="M199.016 46.6399C199.369 46.6186 199.636 46.5116 199.829 46.3619C199.273 46.2657 199.102 46.3619 199.016 46.6399Z" fill="#F4F4EF"/>
<path d="M94.2848 47.9337L94.4024 47.5808L94.0924 47.1424L92.6489 47.0034L91.3124 47.0248L90.3394 47.8267L91.1947 48.0513L94.2848 47.9337Z" fill="#F4F4EF"/>
<path d="M91.3978 50.8954H93.6753C94.0709 50.8313 94.4344 50.5212 94.4986 50.04L90.4783 50.0935C90.66 50.6816 91.0022 50.8847 91.3871 50.8954H91.3978Z" fill="#F4F4EF"/>
<path d="M97.6421 48.8427C97.1503 48.4898 96.744 48.5005 96.3911 48.8213C96.7867 49.3452 97.4176 49.4735 97.6421 48.8427Z" fill="#F4F4EF"/>
<path d="M129.088 46.394L128.073 46.4582C127.452 46.394 126.875 46.779 126.907 47.4526L130.82 47.4205C130.478 46.1695 129.751 46.4689 129.088 46.394Z" fill="#F4F4EF"/>
<path d="M128.255 50.4784H129.848C130.34 50.3929 130.767 50.1149 130.938 49.5696L126.982 49.6124C127.175 50.2646 127.709 50.5212 128.244 50.4784H128.255Z" fill="#F4F4EF"/>
<path d="M134.007 48.3614C133.472 48.0513 133.023 48.0834 132.66 48.4149C133.055 48.9709 133.686 49.0778 134.007 48.3614Z" fill="#F4F4EF"/>
<path d="M18.0916 47.3137L17.728 47.7414L18.0809 48.137L20.7112 48.1156L21.064 47.5703L20.7646 47.2495L18.0916 47.3137Z" fill="#F4F4EF"/>
<path d="M45.4743 72.6972L44.9504 71.8632L43.5176 72.3871L43.1648 71.243L44.5548 70.4625L44.0522 69.543L42.9188 70.131L42.566 70.1738L42.3094 69.8958L42.2666 69.1046L43.4855 68.324L42.7905 67.3724L41.454 68.324L40.7376 67.3617L41.8175 66.3459L41.176 65.5013L40.4382 66.3246L39.786 66.378L39.4866 65.7686L40.0961 64.4427L39.1338 63.7156L38.4067 64.7849L37.3588 64.4534L38.0431 62.9351L37.0808 62.4433L36.45 63.7798L35.1883 63.2559L35.8084 61.6734L34.7071 61.235L34.1084 62.8068L32.9857 62.3684L33.392 60.957L32.7184 60.4972L32.1731 60.7966L31.8737 62.1439L30.6975 61.9514L30.8044 60.3369L29.778 60.3155L29.7245 61.8872L28.5484 61.8659L28.4094 60.2727L27.3294 60.3796L27.447 61.93L26.2923 62.0156L25.9073 60.4438L24.9237 60.7004L25.3086 62.2615L24.1752 62.5716L23.6299 61.1174L22.4751 61.5237L23.0418 62.8389L22.4003 63.4163L21.8229 63.4483L21.6732 63.0848L21.1386 62.1011L20.358 62.625L21.0851 63.9936L20.0907 64.6031L19.075 63.4376L18.0485 64.2396L18.8397 65.4906L18.0806 66.0359L17.0113 65.1805L16.2308 65.9183L17.3856 66.934L16.6906 67.8322L15.354 66.9233L14.7553 67.7039L15.9849 68.602L15.354 69.6713L13.964 68.9442L13.3866 69.992L14.8622 70.8153L14.3276 71.8739L12.9482 71.2858L12.4564 72.2481L13.7181 72.7186L14.0496 73.0287L13.9213 73.4563L13.5791 74.1193L12.1356 73.6167L12.0073 74.718L13.5256 75.0388L13.5684 75.798L13.547 76.0973L13.825 76.0118L14.0068 76.9527L14.1565 78.578L14.4345 75.3275L15.3326 72.2802C16.4874 69.4788 18.3051 67.2013 20.8499 65.5119C22.5607 64.3786 24.4318 63.6836 26.4527 63.2238C28.1955 63.0527 29.8528 63.0206 31.5208 63.2238C33.7127 63.737 35.6694 64.5924 37.5299 65.9076L39.3369 67.4686C40.2885 68.5593 41.0905 69.6499 41.7534 70.9223C42.3628 72.216 42.8333 73.4884 43.1434 74.8998L43.4107 76.354L43.6138 77.5836L43.7208 75.7231L43.8705 74.8357L43.6673 73.1142L45.4102 72.7079L45.4743 72.6972Z" fill="#E5E5E5"/>
<path d="M171.398 69.7355L170.703 69.9279L170.243 70.9009L169.195 69.2543L169.452 68.7625L170.585 68.0781L169.987 67.2762L168.618 68.2278L167.677 67.1051L167.934 66.6561L168.265 66.8592L169.088 66.1963L168.458 65.5441L168.18 65.6938L167.078 66.5919L166.394 65.5975L167.346 64.4214L166.383 63.6622L165.474 64.7528C165.154 64.7314 164.587 64.3144 164.491 64.0685L165.218 62.8389L164.213 62.315L163.56 63.7798L162.374 63.2131L162.919 61.6093L161.892 61.2885L161.315 62.8068L160.224 62.4112L160.588 60.8181L159.519 60.5828L159.198 62.1867L157.958 61.9621L158.15 60.5187L157.124 60.23L156.931 61.9408L155.841 61.9621L155.68 60.3369L154.6 60.4438L154.771 62.037L153.638 62.176L153.189 60.5828L152.141 60.8608L152.451 62.3684L151.521 62.6144L150.922 61.1923L149.778 61.6734L150.462 63.0848L149.382 63.7157L148.762 62.6251L148.206 62.3578L147.896 62.9565L148.559 63.9616C148.345 64.3358 147.907 64.6352 147.597 64.5924L146.613 63.4804L145.629 64.4107L146.645 65.5441L145.822 66.3888L144.56 65.3409L143.876 66.1215L145.041 67.1051L144.261 67.9498L142.978 67.0731L142.368 67.9498L143.224 68.4631L143.694 68.8908L143.042 69.9172L141.919 69.265L141.588 69.2115L141.139 70.2701L142.486 70.9009L142.069 72.0557L140.604 71.489L140.144 72.4834L141.791 73.0394L141.331 74.1835L139.952 73.852L139.781 74.4615V74.9212L140.144 75.0495L141.363 75.4238L141.01 76.4823L139.567 76.3219V77.2308L141.042 77.466L141.62 76.1081L142.026 76.8565L142.101 76.4182L142.571 73.7023L143.555 71.2858C144.806 68.8266 146.528 66.8592 148.805 65.3302C151.66 63.5232 154.964 62.7961 158.364 63.1597C160.973 63.566 163.272 64.6138 165.325 66.207C167.709 68.1316 169.345 70.6978 170.318 73.5098V72.5796C170.093 72.0557 170.008 71.7884 169.89 71.2752L170.382 71.7242L170.414 70.933L171.836 70.3984L171.441 69.7248L171.398 69.7355Z" fill="#E5E5E5"/>
<path d="M28.8692 88.0085C34.472 88.0085 39.0162 83.4643 39.0162 77.8508C39.0162 72.2374 34.472 67.6931 28.8692 67.6931C23.2664 67.6931 18.7222 72.2374 18.7222 77.8508C18.7222 83.4643 23.2664 88.0085 28.8692 88.0085ZM28.8692 68.2598C34.1619 68.2598 38.4495 72.5581 38.4495 77.8508C38.4495 83.1435 34.1619 87.4418 28.8692 87.4418C23.5765 87.4418 19.2889 83.1435 19.2889 77.8508C19.2889 72.5581 23.5765 68.2598 28.8692 68.2598Z" fill="#E5E5E5"/>
<path d="M156.343 87.966C161.893 87.966 166.394 83.4645 166.394 77.9045C166.394 72.3445 161.893 67.843 156.343 67.843C150.794 67.843 146.292 72.3445 146.292 77.9045C146.292 83.4645 150.794 87.966 156.343 87.966ZM156.322 68.4097C161.561 68.4097 165.806 72.6546 165.806 77.8938C165.806 83.133 161.561 87.3779 156.322 87.3779C151.083 87.3779 146.838 83.133 146.838 77.8938C146.838 72.6546 151.083 68.4097 156.322 68.4097Z" fill="#E5E5E5"/>
<path d="M167.795 80.8556L166.875 82.7589C166.127 84.0954 165.122 85.2181 163.999 86.2018C162.224 87.7736 160.128 88.7252 157.733 89.0032C155.531 89.3346 153.456 88.8962 151.425 88.0515L149.265 86.8112C147.928 85.8169 146.87 84.6407 145.982 83.24L145.48 82.1066L145.084 81.572C145.416 82.7909 145.769 83.4966 146.228 84.4803C147.041 85.5389 147.886 86.5225 148.805 87.4956L152.088 89.5057L154.579 90.1686C155.926 90.2542 157.241 90.2435 158.589 90.1259C160.235 89.7196 161.711 89.1208 163.144 88.1692C164.181 87.4314 165.025 86.5867 165.817 85.5389C166.843 84.1382 167.581 82.6198 167.987 80.9091C167.816 80.4921 167.784 80.46 167.795 80.8449V80.8556Z" fill="#E5E5E5"/>
<path d="M33.4135 88.2544C32.0663 88.6715 30.7725 88.9174 29.3184 89.1847L25.6937 88.7463C23.9936 88.1154 22.5715 87.2387 21.1174 86.2122L18.2732 83.5284C18.6581 84.6511 19.4493 85.3568 20.1978 86.2871L21.4595 87.645L24.0364 89.2488C26.4421 90.2218 28.9441 90.5319 31.5424 90.008C33.3815 89.5803 34.9746 88.7035 36.5464 87.6236L37.5408 86.5651C38.9308 85.1858 39.8824 83.5177 40.4277 81.529L40.4919 80.7271C39.7648 82.2988 39.1125 83.6247 38.1502 84.9398C36.7282 86.3084 35.1885 87.3456 33.4242 88.2544H33.4135Z" fill="#E5E5E5"/>
<path d="M11.7937 76.5358L12.2855 76.6855L13.4189 76.8459C13.4296 76.6535 13.4617 76.3113 13.4617 76.2578L11.8044 76.0012V76.5358H11.7937Z" fill="#E5E5E5"/>
<path d="M141.213 81.0532L139.908 81.3416L140.053 81.9993L141.358 81.7109L141.213 81.0532Z" fill="#E5E5E5"/>
<path d="M172.211 71.938C171.527 72.2801 171.302 72.3657 170.928 72.9217L172.51 72.6009L172.2 71.938H172.211Z" fill="#E5E5E5"/>
<path d="M171.761 74.4614L171.344 74.6111L171.451 74.9319L171.858 74.8036L172.638 74.4507C173.012 74.4721 173.045 74.4507 172.585 74.301L171.772 74.4507L171.761 74.4614Z" fill="#E5E5E5"/>
<path d="M45.4636 76.8245L44.5654 77.1773L45.517 77.2735L46.0089 77.2521L45.8699 76.7175L45.4636 76.8245Z" fill="#E5E5E5"/>
<path d="M45.7632 74.6325C45.7632 74.6325 45.667 74.4614 45.6349 74.408L44.4053 74.718L44.555 75.0709L44.9078 74.9319L45.7739 74.6432L45.7632 74.6325Z" fill="#E5E5E5"/>
<path d="M45.635 74.4079C45.6136 74.3652 45.6029 74.3438 45.635 74.4079Z" fill="#E5E5E5"/>
<path d="M17.6315 81.7324L17.3535 81.7966L17.6315 82.6092L17.8881 83.069L18.1447 83.0583L17.7171 82.1494L17.6315 81.7324Z" fill="#E5E5E5"/>
<path d="M21.8765 79.1018L22.4325 80.6414C22.8281 81.5075 23.3413 82.4378 23.8866 83.0686L24.9772 83.4535L27.1157 84.5228L29.1045 84.8542L30.6869 84.5334L33.0286 83.3573C33.1034 83.2611 33.2531 83.3359 33.6808 83.6139L34.4506 83.1221L34.4186 82.3843L35.723 79.6577L36.3859 77.7331C36.2576 75.8513 35.7016 74.1619 34.3758 72.8574C32.5795 70.7831 29.8636 69.885 27.2012 70.5158C25.8326 70.9114 24.6779 71.585 23.6514 72.5473C22.1224 74.0336 21.1387 76.14 21.4808 78.2998L21.8765 79.0911V79.1018ZM28.8372 72.0341C32.0128 72.0341 34.5896 74.611 34.5896 77.7866C34.5896 80.9622 32.0128 83.5391 28.8372 83.5391C25.6615 83.5391 23.0847 80.9622 23.0847 77.7866C23.0847 74.611 25.6615 72.0341 28.8372 72.0341Z" fill="#E5E5E5"/>
<path d="M23.8118 85.4853C27.3188 87.8269 31.8845 87.442 34.9852 84.5872C37.8401 82.021 38.7169 78.0755 37.2841 74.5471L36.5356 74.3974C37.3162 76.6214 37.4124 78.5139 36.7816 80.7058C36.3752 81.5292 35.9796 82.2348 35.5199 82.9512C33.3279 85.635 29.9278 86.886 26.549 85.8916C24.0684 85.1325 22.2721 83.4324 21.1601 81.1549L20.4223 77.9152L21.0852 74.8785L21.2456 74.3225L20.7858 73.959L20.0908 75.3811C19.8021 76.739 19.7166 78.0969 19.8984 79.5297C20.3688 82.021 21.7375 84.0098 23.8118 85.4853Z" fill="#E5E5E5"/>
<path d="M149.586 79.6045L150.569 81.4115L151.115 82.5877L153.52 84.0312L154.729 84.5979L157.744 84.5016L158.717 84.1915L160.128 83.5286C160.588 83.7639 161.336 83.5393 161.336 82.9405L162.459 80.9518C162.855 79.9467 163.165 79.0165 163.454 77.9686L163.625 76.7283C163.261 75.4131 162.769 74.2049 161.946 73.1357C160.631 71.6922 159.048 70.8154 157.124 70.4626C155.809 70.3878 154.547 70.623 153.36 71.1255C152.162 71.8098 151.104 72.6224 150.259 73.7238C149.329 75.071 148.837 76.5145 149.008 78.1504L149.575 79.6259L149.586 79.6045ZM156.3 72.0771C159.444 72.0771 161.989 74.6219 161.989 77.7655C161.989 80.909 159.444 83.4538 156.3 83.4538C153.157 83.4538 150.612 80.909 150.612 77.7655C150.612 74.6219 153.157 72.0771 156.3 72.0771Z" fill="#E5E5E5"/>
<path d="M161.732 85.1856C163.464 83.8705 164.523 82.0421 165.025 79.9357C165.453 77.8828 165.293 75.894 164.202 74.0549C163.945 74.226 163.806 74.3329 163.785 74.3864C164.437 75.9795 164.566 77.3054 164.491 78.952C164.191 80.4276 163.614 81.7534 162.759 82.9509C162.085 83.6887 161.411 84.3196 160.577 84.9397C159.155 85.7096 157.733 86.2014 156.129 86.2014C152.996 86.1052 150.366 84.3623 148.944 81.5289C147.928 79.4225 147.875 77.1129 148.72 74.9317L148.506 74.4399L148.003 74.6965L147.436 76.7173C147.223 78.9627 147.629 81.0156 148.794 82.8975C151.606 87.3027 157.466 88.372 161.721 85.1963L161.732 85.1856Z" fill="#E5E5E5"/>
<path d="M28.8373 83.058C31.735 83.058 34.0873 80.7057 34.0873 77.808C34.0873 74.9104 31.735 72.5581 28.8373 72.5581C25.9397 72.5581 23.5874 74.9104 23.5874 77.808C23.5874 80.7057 25.9397 83.058 28.8373 83.058ZM26.5706 81.8177C26.068 81.8177 25.6617 81.4114 25.6617 80.9088C25.6617 80.4063 26.068 80 26.5706 80C27.0731 80 27.4794 80.4063 27.4794 80.9088C27.4794 81.4114 27.0731 81.8177 26.5706 81.8177ZM31.1255 81.7535C30.6336 81.7535 30.2487 81.3579 30.2487 80.8767C30.2487 80.3956 30.6443 80 31.1255 80C31.6066 80 32.0023 80.3956 32.0023 80.8767C32.0023 81.3579 31.6066 81.7535 31.1255 81.7535ZM32.4834 75.6375C32.986 75.6375 33.3923 76.0438 33.3923 76.5463C33.3923 77.0489 32.986 77.4552 32.4834 77.4552C31.9809 77.4552 31.5746 77.0489 31.5746 76.5463C31.5746 76.0438 31.9809 75.6375 32.4834 75.6375ZM28.8587 72.9216C29.3613 72.9216 29.7676 73.328 29.7676 73.8305C29.7676 74.333 29.3613 74.7393 28.8587 74.7393C28.3562 74.7393 27.9499 74.333 27.9499 73.8305C27.9499 73.328 28.3562 72.9216 28.8587 72.9216ZM28.848 75.0922C30.3236 75.0922 31.5211 76.2897 31.5211 77.7653C31.5211 79.2408 30.3236 80.4384 28.848 80.4384C27.3725 80.4384 26.1749 79.2408 26.1749 77.7653C26.1749 76.2897 27.3725 75.0922 28.848 75.0922ZM24.2182 76.5891C24.2182 76.0866 24.6246 75.6803 25.1271 75.6803C25.6296 75.6803 26.0359 76.0866 26.0359 76.5891C26.0359 77.0916 25.6296 77.498 25.1271 77.498C24.6246 77.498 24.2182 77.0916 24.2182 76.5891Z" fill="#E5E5E5"/>
<path d="M156.29 82.9512C159.145 82.9512 161.465 80.631 161.465 77.7762C161.465 74.9213 159.145 72.6011 156.29 72.6011C153.435 72.6011 151.115 74.9213 151.115 77.7762C151.115 80.631 153.435 82.9512 156.29 82.9512ZM154.846 81.5505C154.322 81.9034 153.948 81.9034 153.285 81.4864C153.264 81.048 153.285 80.7272 153.424 80.3209C153.841 80.1178 154.151 80.0857 154.739 80.0857C154.985 80.7486 155.103 81.1335 154.857 81.5505H154.846ZM158.931 81.7537C158.3 81.7965 158.001 81.6896 157.594 81.0694C157.68 80.77 157.819 80.4492 158.065 79.936C158.749 79.9681 159.102 80.0109 159.455 80.5989C159.412 80.9197 159.252 81.2939 158.931 81.7537ZM159.84 75.5949C160.342 75.5949 160.749 76.0012 160.749 76.5038C160.749 77.0063 160.342 77.4126 159.84 77.4126C159.337 77.4126 158.931 77.0063 158.931 76.5038C158.931 76.0012 159.337 75.5949 159.84 75.5949ZM156.247 72.8898C156.75 72.8898 157.167 73.2961 157.167 73.8093C157.167 74.3225 156.76 74.7288 156.247 74.7288C155.734 74.7288 155.328 74.3225 155.328 73.8093C155.328 73.2961 155.734 72.8898 156.247 72.8898ZM153.745 76.9422C154.183 75.8195 155.146 75.1458 156.343 75.0068C157.306 75.1352 158.118 75.6377 158.642 76.4075L158.909 77.1774C159.123 78.1718 158.717 79.0913 158.054 79.9039C157.06 80.5348 155.905 80.6952 154.772 80.0964C154.772 80.0964 154.782 80.0964 154.793 80.0964C153.852 79.3372 153.392 78.1611 153.745 76.9422ZM151.778 76.5465C151.778 76.044 152.184 75.6377 152.687 75.6377C153.189 75.6377 153.595 76.044 153.595 76.5465C153.595 77.0491 153.189 77.4554 152.687 77.4554C152.184 77.4554 151.778 77.0491 151.778 76.5465Z" fill="#E5E5E5"/>
<path d="M29.6712 77.2202C29.6605 77.1454 29.6284 77.0171 29.6177 76.9529L29.3184 76.6428L28.2064 76.6749C28.046 76.9957 27.939 77.2523 27.8 77.6693L28.463 77.124L29.6712 77.2202Z" fill="#E5E5E5"/>
<path d="M29.6711 77.22C29.6925 77.3162 29.6818 77.2841 29.6711 77.22Z" fill="#E5E5E5"/>
<path d="M28.8585 74.0978C29.0189 74.0978 29.1579 73.9695 29.1579 73.7984C29.1579 73.6273 29.0295 73.499 28.8585 73.499C28.6874 73.499 28.5591 73.6273 28.5591 73.7984C28.5591 73.9695 28.6874 74.0978 28.8585 74.0978Z" fill="#E5E5E5"/>
<path d="M30.8047 80.6524L30.8154 81.1015L31.35 81.0694L31.2645 80.6204L30.8047 80.6524Z" fill="#E5E5E5"/>
<path d="M156.429 77.0597L157.156 77.6691C157.156 77.6691 157.263 77.5729 157.391 77.466C157.092 77.0597 156.856 76.8137 156.386 76.5037L155.295 77.0169L155.188 77.9578L155.67 77.3483L156.418 77.081L156.429 77.0597Z" fill="#E5E5E5"/>
<path d="M157.156 77.6692C157.103 77.7227 157.103 77.712 157.156 77.6692Z" fill="#E5E5E5"/>
<path d="M159.85 76.7495C160.011 76.7495 160.139 76.6212 160.139 76.4608C160.139 76.3004 160.011 76.1721 159.85 76.1721C159.69 76.1721 159.562 76.3004 159.562 76.4608C159.562 76.6212 159.69 76.7495 159.85 76.7495Z" fill="#E5E5E5"/>
<path d="M152.654 76.7388C152.814 76.7388 152.943 76.6095 152.943 76.4501C152.943 76.2906 152.814 76.1614 152.654 76.1614C152.495 76.1614 152.366 76.2906 152.366 76.4501C152.366 76.6095 152.495 76.7388 152.654 76.7388Z" fill="#E5E5E5"/>
<path d="M156.236 74.1083C156.418 74.1083 156.557 73.9586 156.557 73.7876C156.557 73.6165 156.407 73.4668 156.236 73.4668C156.065 73.4668 155.916 73.6165 155.916 73.7876C155.916 73.9586 156.065 74.1083 156.236 74.1083Z" fill="#E5E5E5"/>
</svg>
